<svg xmlns="http://www.w3.org/2000/svg" fill="none" viewBox="0 0 334 542">
  <path fill="#017626" d="M16.3 365.9C26.4 447.4 68 537.3 149.5 527.2c81.6-10.1 172.2-116.4 162-198-10-81.5-47.7-127.5-129.3-117.4-81.5 10-176 72.5-165.9 154Z" opacity=".2"/>
  <path fill="#017626" d="m113.6 2.3-.3-2.3c1.3 1 2.4 2.3 3.3 4.1l.1-.7c1 1.3 1.7 3 2.8 4.4 3.2 4.2 6 8.6 8.8 13 4.2 6 9.7 11.2 14.1 17.1a116.5 116.5 0 0 1 20 44.2 79 79 0 0 1 .3 24.9 581 581 0 0 1-7.4 45.9c-2.7 18-7.3 35.7-10.5 53.6-.7 4.7-.9 9.4-1.3 14.2l-.1 2.9c.7 2.2 1 4.3.9 6 1.8 9.6 4.8 18.8 7.5 28.1 3.1 10.8 5.6 21.8 9.4 32.5l22.4 54c2.8 5.6 5.5 11.4 8.2 17.2-.3-8 .2-15.8 1.1-23.6a11 11 0 0 1 .6-7.3l.4-.6c-.8-4.6-1.2-9.7-2-12.2a211.5 211.5 0 0 1-4.3-81.3c1.2-15.6 7.2-30 13-44.3 4.6-14.5 11-28.3 16.8-42.3a106 106 0 0 1 7.7-20.3l-.5-3.1.9.6-.5-1.3c11.2 4.6 16.4 19.8 24.2 29.3a120.7 120.7 0 0 1 16 57.2c.4 15.4-5.5 30-12 43.6-9.3 21.7-30 35.5-40.7 56.3-2.8 5.7-5.4 11.7-8.2 17.5-.7 1.3-2.9 7.4-5.1 10.8-.2 6.8-.3 13.6-.1 20.4-.5 4.7 2.2 13.8 1.3 19.6l8 17.5c2.9 5.6 29.2 56.2 15.4 54.5-3-2.6-3-7.2-4.8-10.7-4-10.5-8-21-12.2-31.4-3.8-9.1-8.6-17.7-13.3-26.4a284.4 284.4 0 0 0-20.3-18.6c-2.3-.2-4.3-1.4-6.2-2.6-3.2-1.6-6.7-2.4-10.2-3.4-22.3-6.1-45.6-10.2-66.5-20.5-9.9-5.2-17.9-13.2-26-20.7A129.5 129.5 0 0 1 38 287.7c-5.7-9-13.3-16.9-16.6-27-2.7-3.2-5-6.8-4.5-10.2 1 1.8 2.7 2.8 4.6 3.8 7 1.2 14.1 2.9 21 4.9 8.6 1.9 17.4 2.3 26 4 7.1 1.4 14 4 20.7 6.9 12.5 5 25.3 9.7 36.2 17.8a109 109 0 0 1 30.8 36.6c3.8 7.8 6.2 16.2 9.5 24.3 4.8 4.7 9.5 9.4 14.4 14 1.7 1.9 3.6 3.6 5.4 5.3a612.5 612.5 0 0 1-29.5-74.5c-3.8-11.6-9-22.6-11.8-34.5-2.9-11.8-6.4-23.4-9-35.3l-.8-1.1c-4.9-8.4-9.8-16.8-15.2-24.9-12-15.5-23.4-31.9-28.7-51a168.8 168.8 0 0 1-1.8-59.9c3.8-18.6 8.6-37.1 16.5-54.5a112 112 0 0 0 4.2-15.8c.5-4.7 3.7-9.8 3.6-14.5.1-.2.4 0 .6.2Zm101 181a304 304 0 0 0-16 44.2c-2.4 7.7-5.2 15.3-6.4 23.3-1.6 19.3 1.9 38.6 4.7 57.7 2.1-16 4.6-32 8.6-47.8 2.6-10 6.3-19.8 8.6-30 3-14.6 7.9-28.7 10.7-43.3 1.3-13.5 2.3-27.2 1.3-40.8l-.8 4c-3.6 10.9-6.8 22-10.7 32.7Zm-.8 108.3c5-9.8 12-18.3 19.4-26.2 7.5-7.9 15-16.1 18.9-26.5 6-18.6 7.7-39.7.4-58.1-4.5-11-9.9-21.7-16.3-31.7a52.7 52.7 0 0 1-4.9-7.9c1.3 9 2.5 18.2 2.6 27.3-.3 14.6-3.1 29-5.8 43.3-3.2 15.2-11 29-14 44.3-2.1 10.7-4 21.5-6 32.2-1.6 8.5-3.6 16.8-5.4 25.3l.1-.3 11-21.7Zm-154 11.3c16.5 19.3 38 35.5 63.2 40.7 10.8 2.2 22 3.4 32.5 6.6-12.2-11.1-24-22.7-37.8-32-15-8.6-30-16.8-45-25.2a234 234 0 0 1-35.4-19.5c6.3 10.7 14 20.5 22.6 29.4Zm75.3 2c-3.3-3.9-7.5-7-11.9-9.7-10.8-6.4-21.7-13-33.7-17a322.6 322.6 0 0 0-45.3-11c3.8 1.8 7.6 3.6 11.2 5.6 14.2 9 30.3 14.4 44 24 14.5 10.7 30 20 43.8 31.5 2 1.6 4 3.2 5.8 5a74 74 0 0 0-13.9-28.3Zm19.1-183c3.2-14.5 2.2-29.6-.3-44.2-3.6-14.5-14.3-25.8-21.7-38.4-3.5-5.7-8.3-10.5-11.4-16.4.8 9.2.9 18.7 1.7 24.2.4 21.3 3.8 42.3 3.8 63.7 2.2 23.4 6 46.7 8.2 70.2.8 7.6 2.4 15.3 4.2 23 2-11.1 4-22.2 5.3-33.5 1.6-16.5 6-32.6 10.2-48.6ZM98.7 80c-2.3 16-5.5 32-5.7 48 1.4 20 20 47 30.6 64.2 1.6 2.8 5 7 8.4 12-2.4-17-5.4-33.7-8-50.5-1.7-14-1.9-28-3.2-42-3.5-20.8-4.1-41.9-5.7-63-.5-7.6.2-15.3-.2-23-1.7 8.3-5 16.5-6.8 24.6-2.7 10-6.9 19.7-9.4 29.8Z" opacity=".2"/>
</svg>
