<svg xmlns="http://www.w3.org/2000/svg" fill="none" viewBox="0 0 471 596">
  <path fill="#44A301" d="M447 349c-14.3 114.7-72.8 241.3-187.6 227C144.6 561.9 17 412.3 31.3 297.5c14.2-114.8 67.3-179.6 182-165.4C328.2 146.3 461.3 234.2 447 349Z" opacity=".2"/>
  <g fill="#44A301" opacity=".2">
    <path d="M331.8 312.8c.1.9-.8.2-1 0 .2-.5 1-.7 1 0Z"/>
    <path d="M273.3 297.6c.5-4.7.8-9.9 4-13.6 2.2-2 4.5-5 7.8-4.5 4.7 1.7 7.7 6.3 11 9.8 2.8 3.2 5.7 6.3 8.1 9.7 4.7 6.4 8 13.6 11.5 20.7 3.7 7.5 7.4 15 9.2 23.3 2 7.2 2.8 14.7 4 22.1a85.6 85.6 0 0 1 1.8 19.8c.3 7.2 1.7 17.2 1 23.5.4 1.8 1 3.6 1.5 5.3 3.3 12 3.6 24.5 2.3 36.8 7.9-19.4 12.2-40.2 18-60.3l1-3.4v-1.4c-.2-13.5-2.8-26.8-4-40.2a299 299 0 0 0-5.8-25.3c-1-1-1.7-3.7-2.3-4.6-2.3-4.8-4.6-9.7-7.3-14.3-3-4.6-5.6-9.6-8.7-14.4-4.8-6.7-9.8-13.3-13.7-20.6-6.4-11.6-14.5-22.2-19.1-34.7A76.2 76.2 0 0 1 285 195c-.1-8.5 1-20.7 10.4-23.6 6.7 0 15 14.4 20 19.3 6.7 7.5 11.6 16.5 16.7 25.2 3.5 7.1 5.6 14.9 8.3 22.3a90.4 90.4 0 0 1 5.8 30.7c.5 7.9 1.2 15.8.5 23.7-.3 6.5.4 13 0 19.4 1 3.4 1.9 6.8 2.6 10.2 1.6 6.8 2.3 13.7 3.8 20.5a164 164 0 0 1 3.3 23.2l.5 5.3 1.2-8.7c2.2-14 4.7-27.8 6-41.8 3.4-18.3 2.7-36.8 4.3-55.2 1-11.8.9-23.6 1.7-35.3-.3-1.4-.5-2.4-.7-2.7-2.6-10.2-7.6-19.5-11.7-29-2-4.6-4.2-9-6.7-13.2-3.1-3.3-6-6.8-9.5-9.7-8-6.3-16-12.5-23.3-19.6a163.1 163.1 0 0 1-36.1-35.4c-6.2-10.3-12.7-28.7.5-36.1 11-3 25.3 12 31.9 19.8 6.8 9.6 13.9 19.2 19.5 29.6 3.6 6.9 6.4 14.1 9.9 21.1a99.7 99.7 0 0 1 7.2 17.3c2.2 5.6 4.9 11.3 6.1 17.2 5.6 10.2 10 21 13.4 32.1.1-11.3-.6-22.6-1-34-.4-15.3 0-30.7-2.5-45.8a142 142 0 0 0-3.3-24.3c-2.7-5.3-6.4-10-9.8-14.8-4.5-6.3-8.4-12.9-12.7-19.3A163.8 163.8 0 0 1 319 44.6c-3.6-9.8-8.4-26.4-4.3-36.4 2.2-4.4 6.5-8.7 11.7-8.2 6 .7 10.6 5.2 15.1 8.8 5.8 4.6 9.8 11 12.9 17.6 2.9 6.5 6.1 12.8 8 19.7a142 142 0 0 1 4.4 24 116 116 0 0 1 1.9 22.5c.3 8.4 1.1 16.9 1 25.3 1.3 7.3 2.1 14.6 3.2 21.7 1.1 9.2.2 18.6 1.2 27.8a312 312 0 0 1 1.5 27.4l3.5-8.3c2.3-6.4 3.9-13.5 6.2-20 3.6-9.6 6.5-19.4 7.6-29.7 1-4 1.7-8 2.4-12-.2-24.8-3.8-49.6-3.3-74.3A49 49 0 0 1 405.6 16c14-15.4 21.1 10.6 21 21.7-.2 10.9-1.2 21.8-3 32.6-1.8 10.2-5.8 19.8-9.2 29.5-2.7 7.9-7.7 14.6-10.8 22.4-1.5 3.4-3.3 6.8-4.6 10.3-.3 1.3-.4 2.6-1.2 3.6-.6 3.2-1.3 6.4-2.2 9.5-2.9 9.4-4.5 19.3-7.7 28.7-3.5 10.5-8 20.6-12.3 30.9l-.3 8.7c-.3 12.3.9 24.5.3 36.8l-1.6 22.6 2.4-7.2c3.7-9.6 9.4-18.2 14-27.3 1.7-4 3.8-7.7 6.2-11.3.6-1.8 1.6-3.6 2.2-5.3 1.3-3.2 2.4-6.5 3.8-9.6 3-9 5.6-18.5 9.4-27.5 2-5.4 4.7-10.5 7.7-15.5 3-5.3 5.4-10.9 8.5-16.1 5-7.4 9-16.3 16.7-21.2 7.7-4.1 18.8-10.2 20.9 2.8 1.2 9.6-2.5 19-6.6 27.4-3.6 7.1-6.8 14.4-11.3 21-4.2 6.2-10.3 10.8-15.3 16.3a98.1 98.1 0 0 1-15.8 15.1c-5.9 6-11.8 11.7-17.6 17.7l-.8 1.3-1 1.5c-3 4.8-6.6 9.6-9.3 14.8-4.2 8.7-7.9 17.7-12 26.4l-3.2 10.8-1.7 21.6a446.4 446.4 0 0 1-11.8 79.5l-1.9 11a13 13 0 0 1-1 5.2l-.5 2.3c3-4.7 6.3-9.4 10.2-13.6 5.1-6.6 10.5-13 16.3-19l.1-.1.5-.8c5-8.7 11.3-17 16-26a352 352 0 0 1 13.6-24.8c7.2-14.6 13.6-29.8 23-43.2a40 40 0 0 1 22.2-15.3c5-.4 10.6 3 11.9 7.9 2.2 11.1-3 22.2-7.1 32.4-3 6.8-8 12.5-12.5 18.3-4.5 6-8.9 12-14.2 17.2-6.2 6-13.2 11-19.8 16.6-5 3.8-10.9 6.6-15.6 10.9-3.6 3-7.6 5.3-11.2 8.2-2.5 2.2-5.6 3.6-7 6.7-.4.6-1 1.4-1.8 1.6a1 1 0 0 1-.3 0l-1.7 2.5c-3 4-6.5 7.8-10 11.5-5.5 6.9-10.8 14-15.7 21.3l-.3 1A352 352 0 0 1 343 449a274 274 0 0 1-21.6 54.2c-3.5 4.3-7-6.2-5-9.6 6-10.8 10-22.6 15-34 .5-2.9 1-5.9 1.3-8.9a136.8 136.8 0 0 0-2.5-34.7c-1.6-1.8-2-5-3.3-7a219 219 0 0 0-11.6-22.6c-14.3-18.9-30.2-37.6-37.2-60.7-3.9-9-6-18.6-5-28.3Z"/>
  </g>
</svg>
