<svg xmlns="http://www.w3.org/2000/svg" fill="none" viewBox="0 0 486 398">
  <path fill="#44A301" d="M470.1 346.3c-9.7 78.2-49.6 164.5-127.8 154.8-78.2-9.7-165.2-111.7-155.5-190 9.7-78.2 45.9-122.4 124.1-112.7 78.3 9.7 169 69.7 159.2 147.9Z" opacity=".2"/>
  <g fill="#017626" opacity=".2">
    <path d="M292.2 191c-2.2-.3-4.2 1-6.4 1.5-2.6.5-4.7 1-7.6 1.4-12.7 1.3-25.4 2.3-38 4.4a115 115 0 0 0-36.8 14.5c-12.4 1.7-25.6 5-34.6 14.3-.7.9-1.8 2-3.1 3.2 2.5-3.6 5.6-6.6 8.8-9.6 10.7-10.6 23.7-18.3 35.1-28.1l1.6-1.1c1.5.2 3.6-2.3 5-3 4.9-3.5 9.6-7.3 14.5-10.7 8-4.6 16.4-9 22.8-15.9a44.5 44.5 0 0 0 9.5-16.6 73.4 73.4 0 0 0 7.1-33.5c-1.2-9.5-6.3.4-8 3.8a178 178 0 0 0-17.8 29.2c-3.4 6.4-6.8 13-11.4 18.6-4 4.4-8.2 8.6-12 13.2-2.6 2.8-5.4 5.5-7.5 8.7a93.9 93.9 0 0 1-7.5 5.7l-9.6 6.7c1.8-3.7 2.1-8.2 3.2-12 1.5-5.1 2.3-10.4 3.6-15.5l.3-.7a54 54 0 0 1 3.3-5 148 148 0 0 0 21.4-28.4 134 134 0 0 0 11.7-37.5c.3-4 2.9-9.7.9-13.5-2.3-1.3-5.7 7.5-7.1 9.2-3 4.7-6.4 9.3-9.5 14-5.1 8.7-11.8 16.5-16 25.7a56.7 56.7 0 0 0-6.5 23.6c-.3 2.4-.5 4.8-.4 7.2a208.7 208.7 0 0 0-7.3 34.6c-12.3 8.8-25.3 19.3-31.8 32l-.3-3.3c-.9-12.5-1.7-25-2.8-37.5a166.5 166.5 0 0 1 11.5-33.1c2.6-5.9 4.6-12 7.4-18 7.3-10.4 14.6-21 23.5-30.2 8.4-9.7 14.3-22.8 11.8-35.8-1-7-1.7-14-4-20.6-.7-1.6-1.7-5.2-3.4-5.9-3.8.5-4.3 6-4.2 9 0 8.5-2.4 16.6-4.7 24.7-1.7 6.3-2.8 12.9-5.2 19-2 5-5 9.4-7.2 14.1-1.7 3.4-3 7-4.4 10.6a178 178 0 0 0-7.2 17.7l-1.6 4.3a278 278 0 0 0-10.4 25.5l-2.8 9.1c-.9-8.8-2-17.7-3.4-26.5-1.5-13.5-4.3-26.9-6.5-40.4V104c1.2-9.4 2.3-19.2 5.9-28a217 217 0 0 0 11.7-33.1c1.1-3.4 2.2-6.8 2.5-10.3.5-6.7.5-13.3 1-20 0-1.8.7-15.3-3.2-12a315 315 0 0 1-11.9 16.6c-3.5 4.4-7 8.9-9.3 14.1-5.5 12.4-10.8 25.3-10.1 39.1 0 9.4-.4 19 3.4 27.7 2.2 7.2 5.1 15.2 7.2 22.5.2 2.2-.4 4.7.6 6.8.1.4.5.8 1 1l.8 4.6.1 1.7c.6 4 1.5 7.8 1.8 11.8 1 10.8 2.6 21 2.9 31.9 1 11.4 3 22.8 2 34.3.4 8 .6 15.8.7 23.7-2.2-2-4.5-3.8-6.6-5.8-3.8-3.6-7.8-7-12-10.2a92 92 0 0 1-10.9-29.7V185c0-11 1.3-22 2-33 0-11.7-2.7-23.4-8.9-33.4-4.4-8-7.7-17.7-15.2-23.2-3 .4-.6 5 0 6.7.9 2.7 1.4 5.5 2 8.2 1.7 10.2 1.4 20.6 3.3 30.8 1.2 5.9 1.2 12 2.2 17.9 1.3 6.7 3.7 12.5 6 19a188 188 0 0 1 4.8 13v.1l.2.5.5 1.4.2.6.3.9.4 1.4a67.6 67.6 0 0 0 1.1 2.7l2.5 9a61 61 0 0 0 3.3 8.4c-4.4-3.1-8.4-6.7-12.7-10-4-3-8.3-5.5-12.2-8.7-4.4-4.3-8.6-8.9-12.5-13.7-.9-1.8-2.1-3.5-3-5.3a136 136 0 0 1-5-10.6c-3.3-8.7-4.1-18.4-7.4-27.2-3-10.3-7.4-20-11.3-29.9-2.1-6.6-4.4-13.2-7.8-19.4-1-1.8-3.5-2.2-3.3.4.2 1.8.8 3.6 1 5.4 1.4 7.4 2 15 2.8 22.5.7 10.4 3.1 21.4 5.3 31.7a68.3 68.3 0 0 0 19 27A79 79 0 0 0 91 190c3.4 4.3 7.6 7.7 11.7 11.1l-5-1.6c-4-1.5-7.8-3.2-11.8-4.9-12.2-6.2-22-16.5-34.4-22.5-8.8-3.4-18.3-4.8-27.4-7-3.2 0-10.8-3.4-12.8-.3 0 .9.9 1.4 1.5 1.9 5.4 3.7 10 8.3 14.6 13a77 77 0 0 0 28.1 18 82 82 0 0 0 42.1 7.1c6.7 2.7 13.2 5.7 19.6 9 2.4 1.8 5 3.6 7.5 5.2 4.5 3.5 9 7 13.7 10.4l.2.3 1 .7a22.1 22.1 0 0 1 1.8 1.3l.4.3.2.1h.1l3.3 2.1c3.7 2.5 7 5.6 10 9l-.2 8.6c.3 4.3-2 11.4 1.6 14.5l.4.3c1.3.4 2.7-.2 3.9-.8 2.8-1.8 2.6-6 2.9-8.9a183.4 183.4 0 0 0 .1-1.8v-1.3l-.1-.5v-5.9l-.1-.3a31 31 0 0 0-1-5.3l-.3-4c2.9-3.1 5.9-6 8.9-9 4.6-3 10-4.4 15.2-6.4a101 101 0 0 1 14.5-4.3c7.7.4 15.4.9 23.2.5 16 .9 32.7-1 46.4-10.2 2.3-1.5 27.8-14.9 21.4-17.3Zm-48-39.1c4.6-13.7 15.2-24.2 21.3-37.2 1.6 6.7-.4 13.4-1.8 19.9a54 54 0 0 1-9.1 20.4c-3.5 5.2-8.9 8.3-14 11.7a65.1 65.1 0 0 0 20.2-28 20 20 0 0 0 .6-8.3c-2 3.3-3 7-4.8 10.4-3.4 7.9-9.6 13.9-15 20.3-3 3.2-6.3 6.1-9.7 8.9a69.4 69.4 0 0 0 12.3-18.1Zm-36.5 4.7c4.6-15 15-27.2 21.7-41 .3-1.4 0-2-.5-2.3-.7-.2-1.7.4-2.4 1.5-3.6 5.8-7.6 12.1-11 18.2-4 7.1-7.2 14.6-10.5 22 .8-5.8 2.5-11.5 4.6-16.9l10.8-19.2c5.3-8 11.9-15.1 16.3-23.7-1 8.6-3.3 17-5.1 25.4-2.3 6.8-6 13-9.4 19.2-4.6 7.1-10.5 13.2-15.5 20l1-3.2Zm-70.3-79.7a106 106 0 0 1 5.5-31.7c2.8-7.3 7.8-13.4 11.8-20.1 3.5-5.1 7.9-9.6 11.2-14.8-.5 11.7 0 23.9-4.3 34.9-2.2 5-3.9 10.2-5.7 15.4-3.5 8.7-7.2 17.6-9.4 26.8l-.9 6a141 141 0 0 1-.2-18.4c1.8-12.3 5.8-24.4 9.9-36.2 4-14.8 1-10.3-3.8-.2-6 16.4-9.7 33.7-9.6 51.3.2 4.5 1 9 1.7 13.4a92.2 92.2 0 0 1-6.2-26.4Zm67.7-19.6c3.7 12.2 6 17 4.1 30.4a34.8 34.8 0 0 1-7.8 16.1c-3 4.3-6.5 8.3-10 12.2a509 509 0 0 1 8.5-14c4-9 7.8-18.8 8-28.7-.2-3-.5-6.3-2.5-8.6-.3 2.5 0 5-.2 7.4-1.3 12-6.3 23-11.6 33.7-1.7 2.8-3.6 5.6-5.5 8.4 2.6-5.8 5.3-11.6 7.7-17.5 4.8-12.6 6.7-26.2 9.3-39.4Zm-92.5 89.2c-.8-14.3-2.3-28.5-5.6-42.5 11.5 16.4 18.3 31 17 51.5 0 3.8-.3 7.5-.8 11.2l-.7-6.2c-.6-11-2.5-42.8-13.4-47.7a97 97 0 0 1 8.5 32.7c2.2 10.5 2 21.1 3 31.7-4.4-9.7-6.3-20.3-8-30.7Zm-34 11.9c-1.6-4.1-3.5-8.1-4.5-12.4-1.4-5.2-3-10.7-6.4-14.8a28 28 0 0 0 .6 7c1.2 9 4.5 17.7 7.7 26.2A53 53 0 0 1 64 131c-1-9.8-2.7-19.6-4.2-29.4a386 386 0 0 1 17.6 49.8c1.7 5.4 3.2 10.8 4.7 16.2-1.3-3-2.3-6-3.5-9.1Zm-.6 42.8c-7-1.5-14-3.6-20.8-5.8-14.4-6.4-25.8-17.9-37.7-27.9 8.2 2.2 16.8 2.4 24.9 5.1 8.5 3.7 15.7 9.8 23.3 15l8.2 5c-4.2-1.3-8.6-2.2-12.8-3.6a127 127 0 0 1-22.3-12c2 7.4 9.6 11.7 15.8 15.2 3 1.3 6 2.4 9 3.5L72 198c5.9 2 12.2 2.3 18.1 4l-12-.8Zm174.2 12.1a179.6 179.6 0 0 1-28.2 2.2l8.4-1.4c4-.4 8-.4 11.7-1.4 3.6-1.1 7.3-1.8 10.7-3.3 2-1 3.9-2.5 5.6-4-2.7-.8-5.5-.5-8.1.1-2.7.7-5.6.5-8.3.8-5.8.9-11.6 2-17.5 2.1a84 84 0 0 0-11 1.8c9-4.4 18.5-7.4 28.2-9.6 14-1 28.1-1.9 41.9-5.4-10 7.9-21.2 14.4-33.4 18.1Z"/>
    <path d="m87.6 15 1.6.5c.5.2 1 .4 1.3.7l1 1.1.6.5c.3.2.5.4.6.7l.2.3v-.2l-1.1-2-.4-.7c-.5-.6-1-1.1-1.2-1.7l-.6-2.6-.1-.9v-.1h.2l.8 1.4c.4.6.9 1.3 1.2 2 .1.3.3.6.3 1l.2 1 .1.8 1 2.3c.2.6.2 1.3.3 2v2l-.1.8c.3-.6.5-1.3.6-2l.6-2.8v-3.8a7.7 7.7 0 0 0 0-.5l-.5-.7-1.4-1.4-1-.8a8 8 0 0 1-.7-.8s-.9-1.5-.6-1.4l1 1 1.5 1 .8 1 .7 1v-.3c-.2-1-.6-1.9-1-2.8v-.4l-.4-.5-.6-.6-.5-1c-.1-.2-.3-.6-.3-1l-.4-1.5-.3-1c0-.4.2-.1.3.1l1.5 1.8.5.9.4 1 .1 1 .1.8c0 .2.2.5.1.8.2.3.2.7.3 1l.4 1.3v-.5a15.1 15.1 0 0 0 0-.7c.2-.7 0-1.4 0-2l.5-1.4c.3-.5.5-1 .6-1.6 0-.1.2-.2.2 0v1.5l.1.7-.3 1.6-.8 1.3v.3h-.1a33.9 33.9 0 0 1-.1.9v.7l.2 2.3v2.2c-.2.7-.2 1.5-.3 2.2l-.4 1.6-.6 1.8v.3l.8-1 1-1.2.7-1.1c.4-.6.6-1.3.9-1.9v-.2l.1-1.3.3-1.1.2-.9.4-.7.5-.8.3-.6c.1-.2.3-.3.3-.5.1-.1.2 0 .2.2l-.2.5v.9l-.2 1.6c-.1.4-.2 1-.4 1.3l-.7 1.4-.6.7-.1.2a11 11 0 0 1-.8 1.7l-1 1.2.4-.2 1.1-.7 1-.6 1.4-.9c.4-.3.9-.4 1.4-.6.4-.2 1-.2 1.4-.3h1.1l-.2.2-.8.3c-.7.4-1.3.9-2 1.2l-1.4.5-1 .2-.9.2-.8.5-.5.3-.6.5c-.3.5-.7.9-1.1 1.2l-1.2 1.4a8 8 0 0 1-1 1.7l-1 1.4-.5.4-2.1 1.7c-.2 0-.2-.3-.1-.4l1.8-1.6 1.1-1.1a6 6 0 0 0 1-1.3l.9-1.5.2-.4.1-1 .3-1.2v-.4c0-.2-.2-.3-.3-.5-.2-.3-.4-.6-.7-.7-.8-.5-1.5-1-2-1.7 0-.1-.8-1.4-.4-1.2l.9.6.6.4.9.5c.3.4.7.8.8 1.3l.2.4v-.4c0-.6-.2-1-.3-1.6l-.5-.9-1-1h-.3l-.3-.1c-.7-.3-1.5-.5-2.1-1-.4-.2-.7-.6-1-.9l-.3-.4s-.2-.3 0-.3Z" opacity=".3"/>
  </g>
  <path fill="#017626" d="M256.5 295.4c-10.6 85.3-54 179.3-139.4 168.7-85.2-10.5-180-121.7-169.4-207C-41.7 172-2.3 123.7 83 134.3c85.2 10.6 184 75.9 173.5 161.1Z" opacity=".2"/>
</svg>
