<svg xmlns="http://www.w3.org/2000/svg" fill="none" viewBox="0 0 333 542">
  <path fill="#017626" d="M317 365.9c-10.1 81.5-51.7 171.4-133.3 161.3-81.5-10.1-172-116.4-162-198C31.8 247.7 69.5 201.7 151 211.8c81.6 10 176 72.5 166 154Z" opacity=".2"/>
  <path fill="#017626" d="M219.7 2.3c0-.8.2-1.5.3-2.3-1.3 1-2.4 2.3-3.4 4.1v-.7c-1 1.3-1.7 3-2.8 4.4-3.2 4.2-6 8.6-8.8 13-4.2 6-9.7 11.2-14.1 17.1a116.5 116.5 0 0 0-20 44.2 79 79 0 0 0-.4 24.9 581 581 0 0 0 7.5 45.9c2.7 18 7.3 35.7 10.5 53.6.6 4.7.9 9.4 1.2 14.2l.2 2.9c-.7 2.2-1 4.3-.9 6-1.8 9.6-4.8 18.8-7.5 28.1-3.2 10.8-5.6 21.8-9.4 32.5-7.5 18-15.1 35.9-22.4 54-2.8 5.6-5.5 11.4-8.2 17.2a154 154 0 0 0-1.2-23.6 11 11 0 0 0-.5-7.3l-.4-.6c.8-4.6 1.2-9.7 2-12.2a212 212 0 0 0 4.3-81.3c-1.2-15.6-7.2-30-13-44.3-4.6-14.5-11-28.3-16.9-42.3-1.8-7-4.3-13.8-7.6-20.3l.4-3.1-.8.6.4-1.3C97 130.3 92 145.5 84.1 155a120.7 120.7 0 0 0-16 57.2c-.4 15.4 5.5 30 12 43.6 9.3 21.7 30 35.5 40.7 56.3 2.8 5.7 5.4 11.7 8.2 17.5.6 1.3 2.9 7.4 5.1 10.8.2 6.8.3 13.6 0 20.4.6 4.7-2.1 13.8-1.2 19.6l-8 17.5c-2.9 5.6-29.2 56.2-15.4 54.5 3-2.6 3-7.2 4.8-10.7 4-10.5 8-21 12.2-31.4 3.8-9.1 8.6-17.7 13.3-26.4 6.4-6.6 13.3-12.7 20.3-18.6 2.2-.2 4.2-1.4 6.2-2.6 3.2-1.6 6.7-2.4 10.1-3.4 22.4-6.1 45.7-10.2 66.6-20.5 9.9-5.2 17.9-13.2 26-20.7a129.5 129.5 0 0 0 26.3-30.4c5.7-9 13.3-16.9 16.6-27 2.7-3.2 5-6.8 4.5-10.2-1 1.8-2.8 2.8-4.6 3.8-7 1.2-14.1 2.9-21 4.9-8.6 1.9-17.4 2.3-26 4-7.2 1.4-14 4-20.7 6.9-12.5 5-25.3 9.7-36.2 17.8-13.1 9.2-23 22.7-30.9 36.6-3.7 7.8-6.1 16.2-9.4 24.3l-14.4 14a78.2 78.2 0 0 1-5.5 5.3 611 611 0 0 0 29.6-74.5c3.8-11.6 9-22.6 11.8-34.5 2.9-11.8 6.4-23.4 9-35.3l.8-1.1c4.9-8.4 9.8-16.8 15.2-24.9 11.9-15.5 23.4-31.9 28.7-51 4.6-19.5 4.3-40.1 1.8-59.9A250.7 250.7 0 0 0 228 32.4a112 112 0 0 1-4.2-15.8c-.5-4.7-3.7-9.8-3.6-14.5-.2-.2-.4 0-.6.2Zm-101 181a304 304 0 0 1 16 44.2c2.4 7.7 5.2 15.3 6.4 23.3 1.6 19.3-2 38.6-4.7 57.7-2.2-16-4.6-32-8.6-47.8-2.6-10-6.3-19.8-8.6-30-3-14.6-7.9-28.7-10.7-43.3a241.5 241.5 0 0 1-1.3-40.8l.8 4c3.6 10.9 6.8 22 10.7 32.7Zm.8 108.3c-5-9.8-12-18.3-19.4-26.2A80.8 80.8 0 0 1 81.2 239a87.1 87.1 0 0 1-.4-58.1c4.5-11 9.9-21.7 16.3-31.7 1.9-2.5 3.5-5.1 4.9-7.9-1.3 9-2.5 18.2-2.6 27.3.3 14.6 3.1 29 5.7 43.3 3.3 15.2 11 29 14 44.3 2.2 10.7 4.2 21.5 6.2 32.2 1.4 8.5 3.5 16.8 5.3 25.3l-.1-.3c-3.8-7.2-7.5-14.4-11-21.7Zm153.9 11.3c-16.4 19.3-37.9 35.5-63 40.7-10.9 2.2-22 3.4-32.6 6.6 12.2-11.1 24-22.7 37.8-32 15-8.6 30-16.8 45-25.2a234 234 0 0 0 35.4-19.5c-6.3 10.7-14 20.5-22.6 29.4Zm-75.2 2c3.3-3.9 7.5-7 11.9-9.7 10.8-6.4 21.7-13 33.7-17a322.7 322.7 0 0 1 45.3-11c-3.8 1.8-7.6 3.6-11.3 5.6-14 9-30.2 14.4-44 24-14.4 10.7-29.9 20-43.8 31.5-2 1.6-3.8 3.2-5.7 5a74 74 0 0 1 13.9-28.3ZM179 122c-3.2-14.5-2.2-29.6.2-44.2 3.7-14.5 14.4-25.8 21.8-38.4 3.5-5.7 8.2-10.5 11.4-16.4-.8 9.2-.9 18.7-1.7 24.2-.4 21.3-3.8 42.3-3.8 63.7-2.2 23.4-6 46.7-8.2 70.2-.8 7.6-2.4 15.3-4.2 23a527 527 0 0 1-5.3-33.5c-1.6-16.5-6-32.6-10.2-48.6Zm55.5-42c2.3 16 5.5 32 5.7 48-1.4 20-20 47-30.6 64.2-1.7 2.8-5 7-8.4 12 2.4-17 5.4-33.7 8-50.5 1.7-14 1.9-28 3.2-42 3.5-20.8 4.1-41.9 5.7-63 .5-7.6-.2-15.3.2-23 1.7 8.3 4.9 16.5 6.8 24.6 2.7 10 6.9 19.7 9.4 29.8Z" opacity=".2"/>
</svg>
