<svg fill="none" viewBox="0 0 20 20" xmlns="http://www.w3.org/2000/svg"><path d="m10 5c-.26522 0-.51957.10536-.70711.29289-.18753.18754-.29289.44189-.29289.70711v4c0 .2652.10536.5196.29289.7071.18754.1875.44189.2929.70711.2929.2652 0 .5196-.1054.7071-.2929s.2929-.4419.2929-.7071v-4c0-.26522-.1054-.51957-.2929-.70711-.1875-.18753-.4419-.29289-.7071-.29289zm0 8c-.19778 0-.39112.0586-.55557.1685s-.29262.2661-.36831.4488-.09549.3838-.05691.5778c.03859.194.13383.3722.27368.512.13986.1399.31804.2351.51202.2737s.39509.0188.57779-.0569.3389-.2039.4488-.3683c.1099-.1645.1685-.3578.1685-.5556 0-.2652-.1054-.5196-.2929-.7071s-.4419-.2929-.7071-.2929zm9.71-7.44-5.27-5.27c-.1916-.182734-.4452-.28631651-.71-.29h-7.46c-.26477.00368349-.51837.107266-.71.29l-5.27 5.27c-.182734.19163-.28631651.44523-.29.71v7.46c.00368349.2648.107266.5184.29.71l5.27 5.27c.19163.1827.44523.2863.71.29h7.46c.2648-.0037.5184-.1073.71-.29l5.27-5.27c.1827-.1916.2863-.4452.29-.71v-7.46c-.0037-.26477-.1073-.51837-.29-.71zm-1.71 7.75-4.69 4.69h-6.62l-4.69-4.69v-6.62l4.69-4.69h6.62l4.69 4.69z" fill="#1b1b1b"/></svg>