<svg fill="none" viewBox="0 0 60 108" xmlns="http://www.w3.org/2000/svg"><path d="m36.1054.546113c.0194-.182617.0387-.365252.0668-.546113-.3161.215979-.5777.554887-.7954.979822-.0071-.059702-.0088-.119407-.0176-.179108-.2406.307286-.4091.735726-.6637 1.065836-.7551.98332-1.4118 2.03514-2.0984 3.06763-1.0026 1.45742-2.2932 2.68656-3.3521 4.09657-2.2493 3.12735-3.9719 6.71995-4.7462 10.50395-.3565 1.9596-.3653 3.9579-.0949 5.9298.4302 3.6646 1.0431 7.3029 1.7648 10.9201.6619 4.288 1.7453 8.4899 2.5162 12.7551.1457 1.1238.2037 2.2546.2897 3.3836.0158.1809.0123.4355.0369.6901-.1738.5268-.2546 1.0149-.209 1.4399-.4407 2.2686-1.1448 4.4706-1.798 6.683-.7428 2.576-1.3257 5.1906-2.2318 7.7209-1.784 4.2774-3.5909 8.5478-5.3363 12.8445-.6619 1.3591-1.3046 2.727-1.9368 4.0984.072-1.8736-.0667-3.7419-.2809-5.6032.1493-.5864.1071-1.2379-.1387-1.7383-.0299-.051-.0597-.1019-.0896-.1528.1861-1.0852.2775-2.3073.4724-2.9008 1.5294-6.3354 2.0052-12.878 1.0307-19.338-.2967-3.7138-1.7208-7.1396-3.0975-10.5531-1.1027-3.4452-2.6023-6.7305-4.0088-10.0545-.4319-1.6874-1.0254-3.2994-1.82085-4.8393.02633-.2511.05796-.5005.10713-.7446-.07024.0457-.13521.0949-.19842.1458.03511-.0983.06847-.1967.10359-.2968-2.66726 1.0905-3.89641 4.7042-5.75418 6.9763-2.55136 4.0141-3.520639 8.9044-3.82090285 13.5944-.08428455 3.6699 1.33801285 7.1256 2.89025285 10.3793 2.19842 5.1624 7.10798 8.4531 9.66468 13.3925.6795 1.3784 1.2835 2.7901 1.9683 4.1685.144.3108.6761 1.7665 1.2099 2.59.0491 1.6137.0685 3.2239.0176 4.8394.1176 1.1185-.5268 3.2836-.3196 4.6778-.6251 1.3854-1.2485 2.7726-1.8771 4.1563-.7059 1.3397-6.95701 13.37-3.67869 12.978.72519-.622.72699-1.719 1.14309-2.546.9588-2.497 1.8929-5.006 2.8973-7.4856.8973-2.1721 2.0492-4.2177 3.1659-6.2809 1.5242-1.5716 3.1642-3.0114 4.8288-4.425.5391-.0403 1.0167-.3441 1.4733-.6075.7673-.381 1.6031-.5848 2.4214-.8236 5.3134-1.4574 10.8604-2.4302 15.835-4.8762 2.3564-1.2397 4.2598-3.129 6.1878-4.9288 2.4039-2.1089 4.6041-4.4478 6.267-7.2204 1.3433-2.1335 3.1519-4.0281 3.9508-6.4548.6427-.7481 1.1695-1.6032 1.0711-2.4162-.2335.432-.6567.6796-1.0992.9096-1.6576.2757-3.3626.6866-4.9868 1.1659-2.0475.4513-4.1493.5444-6.202.9605-1.6979.3266-3.3345.964-4.9236 1.626-2.9675 1.1993-6.0176 2.3196-8.604 4.2546-3.1361 2.1879-5.4943 5.389-7.3539 8.6919-.8885 1.8735-1.4662 3.8753-2.2388 5.798-1.1449 1.1168-2.2809 2.2406-3.4398 3.3398-.4021.4372-.8429.8464-1.2942 1.2502 2.648-5.791 5.1607-11.6417 7.0325-17.7366.9026-2.7515 2.1265-5.3819 2.8113-8.202.6848-2.8059 1.5118-5.5785 2.1317-8.4003.0649-.1124.1281-.2072.1896-.2739 1.173-1.993 2.3512-3.9842 3.6172-5.9192 2.8429-3.6945 5.5733-7.5909 6.8499-12.1388 1.0939-4.6356 1.0184-9.547.4144-14.2493-.8903-4.4408-2.0404-8.8464-3.914-12.97987-.4267-1.22564-.7603-2.47586-1.0044-3.7489-.1229-1.12907-.8797-2.35294-.8516-3.462689-.0456-.043898-.0966-.017555-.1457.047414l-.0036.001758zm-24.0298 43.085187c1.4732 3.4364 2.8867 6.8727 3.8174 10.5022.5601 1.8385 1.2238 3.6559 1.5101 5.5645.381 4.5935-.4601 9.1695-1.1151 13.7191-.5232-3.8156-1.1079-7.6277-2.0561-11.3643-.6093-2.4039-1.4926-4.727-2.0527-7.1467-.7164-3.4697-1.8701-6.834-2.54962-10.309-.31256-3.2151-.54258-6.4794-.30729-9.7068.0597.3371.12642.6532.19315.9324.85166 2.6023 1.61716 5.2362 2.56016 7.8086zm.1703 25.7612c-1.173-2.3213-2.83934-4.3371-4.61108-6.2265-1.78402-1.8771-3.58033-3.8455-4.49341-6.3125-1.41177-4.4267-1.83143-9.4347-.0878-13.8262 1.05356-2.6287 2.33891-5.1625 3.87359-7.5435.44601-.59.82528-1.2186 1.15715-1.8683-.29675 2.1528-.59878 4.3213-.60405 6.4952.06322 3.4644.73222 6.9025 1.36085 10.302.77787 3.6207 2.60935 6.9131 3.32045 10.5496.5321 2.5426.9956 5.0957 1.4662 7.6488.353 2.0158.8481 4.0106 1.2696 6.0159-.0106-.0229-.0229-.0457-.0334-.0685-.8832-1.7173-1.7647-3.4329-2.6181-5.166zm36.6392 2.7024c-3.9104 4.59-9.0114 8.4443-15.0114 9.6875-2.5707.5144-5.2309.813-7.7525 1.5592 2.9202-2.6374 5.7419-5.4012 9.015-7.626 3.5399-2.0404 7.1378-3.9824 10.7041-5.9806 2.9377-1.3082 5.7489-2.8745 8.4267-4.6463-1.496 2.5532-3.3239 4.8763-5.3819 7.008zm-17.9017.4917c.7902-.9482 1.7963-1.6752 2.8323-2.3319 2.5795-1.5189 5.1642-3.0975 8.0193-4.0439 3.2643-.9956 6.5585-1.9385 9.9316-2.4917.2862-.0333.5707-.0772.8534-.1299-.9078.4285-1.8139.8551-2.6778 1.3362-3.3644 2.1511-7.1976 3.4223-10.4759 5.7015-3.4311 2.5619-7.1168 4.7744-10.4214 7.5031-.4636.3828-.9184.7762-1.3697 1.173.7762-2.4021 1.5734-4.7972 3.3065-6.7147zm-4.5496-43.5716c-.7463-3.4575-.518-7.0553.0667-10.5198.8622-3.4504 3.4153-6.137 5.1712-9.15365.8376-1.3345 1.9667-2.49868 2.7217-3.88235-.1966 2.17032-.2159 4.43371-.4021 5.7436-.1036 5.0694-.9131 10.0808-.9201 15.1572-.5197 5.5838-1.4381 11.1273-1.9456 16.7147-.1914 1.8209-.5777 3.6471-.9991 5.4732-.4951-2.6409-.9447-5.2906-1.2695-7.9596-.3705-3.9456-1.4012-7.7577-2.4232-11.5733zm13.2186-9.9842c.5426 3.7822 1.3152 7.5856 1.3486 11.4135-.3284 4.7357-4.7428 11.1747-7.2696 15.2696-.4021.6672-1.1887 1.6909-2.0158 2.8445.5865-4.0122 1.2959-8.0035 1.9052-12.014.4215-3.3099.4548-6.6497.7744-9.9684.8288-4.9587.971-9.986 1.3468-14.9904.1159-1.82262-.0404-3.65407.0456-5.47672.4144 1.9684 1.173 3.91402 1.6295 5.84722.6427 2.3934 1.6348 4.6725 2.2371 7.0747z" fill="#017626"/></svg>