<svg fill="none" viewBox="0 0 72 124" xmlns="http://www.w3.org/2000/svg"><path d="m39.3568 59.7217c.4636-2.137.7463-4.3056 1.0799-6.4653.46-.9131.9377-1.8174 1.4609-2.6936 1.5312-2.7481 3.8157-4.9114 6.0264-7.1045.7972-.8552 1.6453-1.6488 2.5267-2.4021.5268-.0246 1.0536-.0527 1.5804-.0755 2.1317-.0281 4.2247-.6532 6.1457-1.5488 3.9877-2.1159 7.403-5.6014 8.72-9.9894.446-2.2195.8358-4.5286.6233-6.7902-.3424-.5163-1.0184.2792-1.4311.4214-1.5381.8393-3.0869 1.6787-4.7041 2.36-1.338.4793-2.7357.827-3.9789 1.5311-2.3091 1.3451-4.2722 3.3714-5.4996 5.7472-.669 1.4557-1.0764 3.0237-1.5926 4.5373-.2634.8692-.3881 1.77-.6023 2.648-2.2441 1.7699-4.2002 3.8665-5.8683 6.2054-.5215.7129-1.7278 2.209-2.8165 3.8051.1229-.5865.2563-1.1712.4109-1.7524 1.2941-5.4574 1.0342-11.0834 1.2783-16.6462.8305-2.1229 1.9315-4.1335 3.3169-5.9456.1809-.2125.36-.4284.5356-.6479.0579 0 .1212-.0158.1861-.0562 4.5198-2.3547 6.5777-5.0343 7.554-10.0439.2564-1.245.2459-2.5215.3266-3.7858.151-1.46094.1335-3.01845-.6971-4.28447-.5338-.6374-1.6716.89552-2.1369 1.2309-.8534.79368-1.7138 1.58385-2.518 2.42667-2.9921 3.0782-3.5593 5.2099-3.6699 9.4153-.0439 1.4381.4179 2.8674.3968 4.3003-.0351.0579-.0737.1159-.1089.1756-1.0886 1.6488-2.3845 3.1729-3.208 4.9815-.1142-1.6944-.4285-3.3713-.7656-5.0412-.1651-1.1186-.374-2.2301-.6357-3.3258.0773-.5039.1229-1.0166.1879-1.1676.281-1.5821.5918-3.1958.3793-4.806-.3213-3.5347-1.7085-6.96403-4.1493-9.56456-.978-1.02722-2.2476-1.69272-3.3064-2.62336-.4741-.42669-3.7032-3.28183-4.1405-2.6584758-.2546.3195788-.2317.7813878-.1878 1.1659358.1264.89728.1931 1.80158.2791 2.70413.1089 1.33626.1247 2.78139.3003 4.21423.3688 3.1027 1.7559 6.007 3.4855 8.5742 1.756 2.0035 3.77 3.7577 5.8034 5.4732.3037 1.2467.5531 2.5057.6953 3.7805.2037 3.0536.6567 6.1054.5725 9.1695-.1194 1.482-.2757 2.9622-.4478 4.439-.6778-2.885-1.4118-5.7876-3.0079-8.3249-.3319-.6848-.7129-1.3503-1.1537-1.9701.0703-.0316.1177-.1019.1194-.2283.065-1.1589.137-2.3863-.4073-3.4539-.4829-1.0167-1.5136-2.0615-2.7252-1.921-1.5804.3284-2.497 2.1826-1.9316 3.6699.4724 1.5417 2.0984 3.2098 3.8262 2.5988.0246-.0141.1668-.058.3055-.1089 1.7507 2.9306 3.3626 5.9508 4.2248 9.2836.2195.8657.3565 1.698.4934 2.5654-.3406 2.6848-.7182 5.3644-1.0448 8.0492-.2335 1.273-.5671 2.5233-.899 3.7735-.3143-1.4891-.669-2.9693-1.1255-4.4197-.5707-1.7191-1.3468-3.3573-2.2669-4.9148-.9904-1.8596-1.9772-3.7367-3.2696-5.3943-.0509-.2282-.1018-.4565-.1457-.6865-.2775-1.4276-.3424-2.9184-.9465-4.2634-1.2379-2.5549-3.6014-4.4302-6.1264-5.633-2.0334-1.1291-4.223-1.8771-6.5075-2.3003-.4969-.072-3.0641-.9991-2.7831.072 1.3784 2.8938 2.5426 5.9403 4.6514 8.4074 1.3802 1.7752 2.8657 3.5663 4.9921 4.4583.8411.4126 1.7033.7972 2.6164 1.0202 1.2151.2774 2.5057.2142 3.712.525.806 1.0799 1.561 2.2037 2.381 3.2695 1.4715 2.2546 2.4022 4.799 3.18 7.382-1.1975-1.1906-3.8244-2.3284-4.6075-2.7533-.3354-.1756-.6796-.3302-1.029-.4671-.6075-.9974-1.2098-1.9965-1.9385-2.9113-1.8736-2.6006-4.6743-3.2503-7.6348-3.8543-1.4416-.3126-2.9219-.2335-4.3846-.2335-1.0219-.0492-2.0439-.2406-3.0676-.1265-.3266.065-1.252.0773-1.3046.4847.2107.82 1.0483 1.3432 1.561 1.9894 2.4003 2.5567 4.7147 5.5084 7.9579 7.0132.9991.381 2.0877.3933 3.1431.4671 1.3064.1405 2.5566-.2019 3.7436-.7199.5215-.1563.9991-.4074 1.4311-.727.8569.2388 1.719.4636 2.5689.7322 1.4118.6023 2.5479 1.5259 3.6875 2.5602.0842.0772.2072.1703.3283.1229 0-.0018.0018-.0053.0035-.007.1774.6268.3512 1.2537.5268 1.8753.0667.1422.1352.4355.2072.8042-.878 3.9912-1.5189 8.0316-2.4074 12.0228-.0017.0176-.0035.0352-.007.0527-.4548-1.0184-.8832-2.0509-1.2274-3.1132-.3933-1.173-.7884-2.5233-1.3731-3.7384.0491-.1352.0404-.3178.0825-.4407.2581-1.0518.5461-2.1598.2897-3.2397-.611-2.5496-3.4802-3.3995-4.9815-1.036-1.3591 2.1229 1.4328 5.7541 3.849 4.9236.3143.7463.5671 1.5189.8569 2.2739.841 1.9017 1.1992 4.1194 2.3213 5.8771-.4372 3.7507-.748 7.6962-.8288 11.5558-.6901-1.8157-1.6523-4.5848-2.9886-6.6181.0035-.0264.0035-.0509.0018-.0755.0122-.5408.0702-1.0747.086-1.6278.3968-2.4302-2.2564-5.3556-4.3231-2.9763-1.8841 2.0176-.0615 5.4768 2.5514 5.5646.3951.0175.7462-.1352 1.0957-.288 1.1203 1.8701 1.9332 3.8806 2.6602 5.9315.3143.7832.6409 1.5681.899 2.374.0053 1.1361.0316 2.2617.0826 3.3661-.058 4.4794.4565 8.9202 1.2414 13.3223.0702.62.1528 1.238.2458 1.852-1.7963-3.3428-4.1738-6.3595-6.4091-9.4165-1.3767-1.5663-2.8235-3.0817-4.3336-4.5251-.2371-.6374-.6568-1.4188-.7077-1.6593-.6374-1.5611-.9043-3.2362-1.1448-4.8973-.2775-2.0509-.6322-4.0931-.8043-6.1563.1458-.2388.2353-.6479.3863-.885.5953-1.2555 1.166-2.5285 1.5347-3.8701.432-1.5241.6761-3.1501.3249-4.7129-.6234-2.5566-2.2845-4.906-4.4917-6.3424-1.129-.6585-2.1457-1.4785-3.2221-2.2142-.576-.4267-.8393-.1247-.7252.4899.0053.5303-.0387 1.0623-.0632 1.5909-.1493 4.2405-1.6717 5.9754.5373 10.1931.9464 2.1142 2.8709 3.4978 4.4881 5.0711.1827.1756.3653.4144.4794.6603.1721 2.1738.2511 4.3582.7463 6.4916.3529 1.6506.834 3.2678 1.3678 4.8675.0404.0895.0791.1808.1142.2739-.0825-.0755-.1651-.1528-.2494-.2283-1.3064-1.115-2.8024-1.9877-4.0439-3.1817-2.2651-2.4214-4.6637-4.7322-6.8007-7.266-.9798-1.4276-1.9227-2.8956-2.7761-4.4127.0913-1.6488.2283-3.2941.2599-4.9447.1422-2.5338-.4495-5.1168-1.60318-7.3696-.82529-1.4153-2.11414-2.4601-3.5382-3.2309-1.34329-.9131-2.85338-1.5013-4.3266-2.1528-.363479-.1826-.482891.1633-.447772.4513.021071.5847.043903 1.1694.049171 1.7542-.015803 1.3432-.029855 2.6865-.026343 4.0298.152766 2.8446.405614 5.8402 2.029854 8.2722.78139 1.3169 1.75945 2.5812 3.17823 3.2467 1.13082.5285 2.25813 1.1466 3.53469 1.1835.11238.1598.25636.2967.41615.3933.2265.4021.4565.8007.6883 1.1958 1.9983 2.4987 3.8051 5.1589 6.0035 7.4908 1.4504 1.5558 3.2169 2.7603 4.7621 4.2142.3688.3828.7498.7516 1.1379 1.115-.9237-.4547-1.8666-.8709-2.8253-1.2344-1.5944-.5988-3.2942-.7726-4.9447-1.1448-1.7577-.5479-3.5804-.8745-5.3995-1.1625-.61809-.1773-1.22037-.4003-1.81563-.6374.00351-.0456-.00877-.0983-.04038-.158-.47234-1.1308-.62335-2.4653-1.50307-3.3766-.84812-.8429-2.14049-1.2485-3.31169-.9658-1.28007.2546-2.061465 1.4732-2.108875 2.7234-.495172 2.5883 2.628635 4.2318 4.858665 3.6576.42493-.0983.83406-.2598 1.15891-.5566.16154-.1299.30552-.3073.45829-.4636 2.46357 1.1344 5.24668 1.547 7.93678 1.8859 3.3257.7674 6.6813 1.7103 9.6822 3.3538 1.101.9711 2.1914 1.9526 3.1712 3.0501 1.6839 1.9789 3.5207 3.777 4.9394 5.9824 1.3574 2.2125 2.6445 4.4702 3.849 6.7692.0668.089.1405.212.2195.353.7533 3.522 1.8034 6.981 2.9939 10.383.8498 2.346 1.6787 4.7 2.6216 7.009.1176.278.2844.624.5742.761.2195.103.4126.007.5267-.186.2828-.573.1581-1.265-.0579-1.844-.5707-1.34-1.0623-2.713-1.5364-4.09-1.5558-4.43-2.8534-8.937-3.8543-13.524-.4197-1.415-.7147-2.848-.9271-4.2949.1615-.6409.3863-1.2695.5829-1.8999.1001-.2775.2072-.5531.3179-.8288.5829-.6146 1.1729-1.2292 1.8015-1.7963 1.5312-1.5962 3.5804-2.4636 5.6576-3.1203 1.626-.5619 3.2643-1.101 4.9483-1.468.7111-.1352 1.431-.1879 2.1527-.2265.576.2739 1.1414.5654 1.7138.8464 2.0896.9429 4.4144 1.9087 6.7463 1.5294 2.5426-.5847 4.7252-2.2634 6.6251-3.9877.4706-.432 5.3872-5.986 3.1835-5.6489-3.0413.0808-6.0702-.3406-9.1133-.1615-1.6453-.0422-3.2958.3512-4.6918 1.2362-1.6997.9166-2.9236 2.4284-4.0825 3.9315-.2898.3266-.5918.6444-.8903.9622-1.0132.223-2.0281.439-3.0623.5532-3.684.618-7.1098 2.4425-9.9017 4.9131.6497-1.3363 1.3626-2.6445 2.0755-3.9474.669-1.1642 1.4995-2.223 2.2441-3.3398 1.1396-1.6435 2.0439-3.4837 3.5505-4.8358 1.0886-1.0342 2.1668-2.1053 3.2379-3.1888 1.8999-.7708 3.8894-1.3116 5.9438-1.4591 1.7349-.0088 3.5136.0368 5.2415-.2037-.0317.0772-.0439.1721.028.23.8324.6936 1.626 1.7542 2.8306 1.6559 1.1326-.1475 2.1738-1.0273 2.3477-2.1809.1229-.9746.0562-2.1458-.7042-2.8587-1.41-1.1712-3.8753-.5619-4.5566 1.1431-.1176.353-.158.7305-.1071 1.0975-1.1694-.0105-2.3389-.0579-3.5101.014-1.7682.1546-3.5944.1669-5.2572.8622-.3425.1458-.6849.295-1.0255.446.8042-.82 1.6032-1.6435 2.4021-2.4548 1.5891-1.4697 3.3661-2.7357 4.748-4.4144 1.2643-.3547 2.5391-.676 3.7612-1.1642 3.6471-1.1993 5.7577-4.1123 6.5057-7.7963.2283-1.8648.1581-3.7752.1633-5.6523-.0632-.6567-.2475-1.3047-.5338-1.8964-.4425-.5215-1.2028.3108-1.5908.6023-2.3495 2.014-4.741 3.9736-7.0237 6.0649-1.4645 1.3451-2.5022 3.0097-2.9974 4.9676-.2072 1.0184-.0843 2.0597-.0702 3.0886-.0211.3653.0719.7428.1474 1.1115-.2844.288-.5601.583-.8217.8921-1.7876 2.2177-4.0316 3.9666-6.1212 5.8806-1.2397 1.0974-2.3213 2.3406-3.3608 3.6207.3617-1.115.6444-2.1756.7445-2.5514.216-.7445.3722-1.5013.5057-2.2634 1.5083-1.87 3.0694-3.0588 3.6523-5.6593.4197-1.5856.4302-3.2678-.0878-4.8306-.2458-.5672-.4793-1.6716-1.0272-2.0913.5988-.1563 1.1817-.36 1.7401-.6444 3.5786-1.7261 5.5593-5.3538 7.1291-8.8253.7428-1.7559.8692-3.684 1.2748-5.5294.1703-1.5242-1.0448-.4021-1.6576-.0457-3.324 2.065-7.1133 3.3714-10.1177 5.9403-2.3318 2.1598-4.8288 5.7366-4.7146 9.0255-.1528.1475-.3459.3477-.4179.5672-1.3661 1.2607-2.6831 2.5794-4.0457 3.8437-.2458.2651-1.4012 1.5153-2.4671 2.8235.1282-.6637.2546-1.3292.367-1.9947.4671-2.7709 1.029-5.5224 1.705-8.2494l.0053.0018zm13.6927-27.2836c.6638-1.7033 1.9912-2.9675 3.5821-3.8227 3.1203-1.849 6.6901-2.7111 9.8016-4.5742-.1598 1.691.2546 3.4399-.3758 5.0676-.5636 1.8192-1.331 3.5733-2.5724 5.0378-.9886 1.2467-2.0544 2.4688-3.5066 3.1958-1.5452.7884-3.0992 1.6225-4.8095 1.9807-1.0079.2388-2.0351.3792-3.0676.4442-.0211.0035-.0439.0035-.0667.007 1.0904-.8446 2.2177-1.6453 3.3556-2.4319 2.3757-2.1317 5.0026-4.1545 6.6093-6.9623.4407-.7743.9236-1.6225.9025-2.5391-.3055.4812-.7708.8569-1.1132 1.317-1.3257 1.252-2.4934 2.6672-3.8244 3.9087-2.2845 1.7401-4.3302 3.7542-6.5374 5.5874-.2774.1861-.5513.3792-.8217.5759 1.0131-2.1861 1.2836-4.6532 2.4442-6.7902zm-6.2511-13.8561c-.0649-1.8841.3688-3.8244 1.1466-5.5364 1.4662-1.9526 3.5365-3.38719 5.2345-5.13609h.0193c.4179.78139.1756 1.8367.3125 2.71819.1247 1.4504-.0667 2.8938-.2388 4.3319-.0895 3.0588-1.798 5.8841-4.3898 7.4925-.2493.2054-.5566.367-.8692.5233 1.7595-2.597 3.0676-5.5435 3.173-8.6901.007-.3126-.0527-.6269-.1282-.9236-.072.1352-.0966.3195-.144.4706-.525 1.863-1.0202 3.7313-1.8525 5.4907-.7076 1.2713-1.5452 2.4671-2.3442 3.6857.2827-1.4117.0317-3.1448.0808-4.4249zm-9.345-.2036c-1.8332-1.5821-3.5435-3.4153-4.7182-5.5435-1.4539-3.51011-1.6752-7.36789-1.8718-11.11855.7708.15452 1.3116.94293 2 1.3187 1.0184.69886 2.1088 1.29236 2.9956 2.16506 1.7067 1.57156 3.3257 3.28885 4.1914 5.48029.525 1.2713 1.1027 2.5812 1.0992 3.9807-.0351 1.4065-.1984 2.8059-.4162 4.1966-.3476-1.1255-.7585-2.23-1.2467-3.3099-.9183-2.0334-1.4978-4.4583-3.4188-5.8051-.0579-.0439-.2107-.1317-.2493-.10536.6163 2.41966 1.6488 4.67426 2.5619 6.98856.3582 1.259.741 2.5198 1.0939 3.7858-.6216-.7304-1.338-1.3959-2.0175-2.0369zm-4.5619 9.8806c-.5725-.8675-.2318-2.3793.7498-2.8078.7093-.1791 1.8349-.1527 2.1738.6129.2915.7006-.0773 1.5311-.0264 2.2475-.2774-.2967-.5741-.5741-.8955-.8288-.1826-.1439-.4179-.2159-.6005-.3424.1615.5812.532 1.1063.8341 1.6295.1492.2441.2967.4899.446.734-.9043-.3968-1.9157-.6216-2.6796-1.2449zm-4.0071 10.8095c-.9622-.2125-1.9122-.4724-2.8569-.7498-1.6734-.5075-3.0957-1.7788-4.3459-2.9693-2.1931-2.5514-3.3608-5.7805-5.0448-8.6567 1.5698.4056 3.1976.5426 4.7323 1.0992 1.3784.3986 2.7849.7849 3.9859 1.5961 1.5312 1.0975 3.2783 2.1791 4.0896 3.9473.5074 1.2994.8376 2.6568 1.1606 4.0141-.0667-.065-.1317-.1317-.1984-.1967-1.8261-2.0351-3.8999-4.2774-6.5847-5.0289.3196.899 1.2151 1.6874 1.9069 2.3933 1.3258 1.3854 2.662 2.7515 4.0984 4.0228.2985.3214.5794.6585.8551.9991-.5672-.2458-1.1958-.3792-1.7981-.4705zm-.9815 10.0316c-7.7718 1.5399-8.7375-2.5988-13.5611-7.2415 1.9895.2757 4.0071.1335 6.0088.2652 2.6497-.0984 5.4171.4583 7.4487 2.2669.9289.8305 1.4908 1.9473 2.1264 3.0044-.6831-.1949-1.3766-.3565-2.0685-.5163-1.0764-.2967-2.0843-.7884-3.1308-1.1694-1.324-.4478-2.6146-.9816-3.9245-1.4522.7252 1.5101 2.4372 2.1458 3.8191 2.9272 1.1765.5812 2.4601.8551 3.7033 1.2484.2616.1036.525.1967.7902.2862-.4021.1317-.8007.281-1.2099.3828zm4.0193 11.0588c-.3424-.1633-.676-.3424-1.0184-.5004-.7323-.302-1.7454-.7884-1.7331-1.7015.0807-.741.4986-1.5435 1.2677-1.7384.9482-.2002 2.8341-.1212 2.2775 1.3064-.0826.5145-.3389 1.0694-.4478 1.6102-.4495-.6075-.9868-1.1255-1.6541-1.4943.0931.5531.9149 1.4434 1.2502 2.1106.0913.1633.1739.3301.2547.4987-.065-.0298-.13-.0579-.195-.0895zm-3.9965 12.439c-.4302-.6672-.1984-1.6927.4653-2.1264.6041-.3776 2.4987-1.0448 2.5602.1071.0245.604-.1844 1.3398-.2072 2.0228-.6023-.6444-1.2678-1.1132-2.0018-1.2959.6023.8587 1.3889 1.6278 1.986 2.511-.1124-.0351-.2248-.072-.3372-.1053-.8604-.2546-1.8964-.3284-2.4635-1.1133zm-8.5672-1.8946c-.6848-.8727-1.3626-1.7296-1.8051-2.7744-.5285-1.6611-.6128-3.4557-.4425-5.1835.2511-1.5593.6093-3.0975.5479-4.6866 2.302 1.0957 4.2985 2.8007 5.7507 4.8973.7164 1.5294 1.0482 3.3345.7691 5.0079-.3899 1.2046-.9816 2.3336-1.5347 3.4803-.2248-2.3618-.7042-4.7217-1.7489-6.8218-.3424-.6251-.7094-1.3117-1.3047-1.7243.1458.4108.2968.82.4583 1.2274 1.1572 2.8621 1.4644 5.9122 1.8753 8.9411-.0404.1019-.0825.202-.1211.3038-.6041-1.0623-1.6734-1.7384-2.4443-2.6672zm-12.27392-.0088c-1.33626-.5689-2.56365-1.547-3.33626-2.7849-.73925-1.6804-1.50658-3.403-1.79104-5.2292-.18437-1.6154.16155-3.2397.1317-4.8604-.00351-1.0342-.06497-2.0755-.16682-3.1027 2.0281 1.4855 4.70589 2.0386 6.27569 4.1299.66725.7709.94644 1.763 1.06585 2.7551.16681 1.4082.26338 2.8288.27918 4.2458-.03336 1.0641-.15452 2.1019-.22826 3.1431-.39333-.8059-.75681-1.626-1.08341-2.46-.64091-1.4258-1.30993-2.8745-2.17736-4.1704-.01931.8921.24759 1.7647.49342 2.6146.66374 2.281 1.6418 4.4724 2.75857 6.5777.00878.1036.01229.2055.02458.3091-.67252-.5215-1.44689-.885-2.24584-1.166zm-3.1273 13.0939c-1.30817.0826-2.09307-1.6066-1.79807-2.7375.2827-.8867 1.69096-2.604 2.71291-2.0526.56014.7603.61282 1.7928.97629 2.6549.02459.1019.05444.1967.0878.2862-.37401-.151-.74978-.2985-1.13082-.4337-.36172-.1879-.78841-.2563-1.1238-.4846.24408.5408.84109.8955 1.31695 1.2397.45654.3301.93416.6198 1.42407.8797-.8288.1247-1.6541.5268-2.46709.6462zm53.02552.8271c1.3925-1.022 3.7314-1.4645 5.4557-1.4469 2.5865.2546 5.1817.5917 7.7822.3248-.7533.8622-1.3327 1.8525-2.0122 2.7691-1.4294 1.5558-2.8113 3.3065-4.7428 4.2494-2.6339 1.2643-4.9289.3266-7.4399-.7568-.1756-.072-.3512-.1458-.5268-.2178.2125-.0316.425-.0684.6374-.1158 1.2397-.1353 2.5461.0245 3.6963-.5479.906-.4319 1.7559-1.0676 2.1633-2.0105-.4759.2265-.9535.4758-1.4961.5759-1.9578.2125-3.8911.4688-5.8613.5162-.5619.0931-1.1185.209-1.6769.3284 1.5681-.8903 2.6146-2.4916 4.0229-3.6681zm4.7673-8.7779c.4601-.5549.8166-1.4855 1.5066-1.7366 1.5646.1001 2.7323 2.3933 1.6857 3.6488-.8428.0667-1.4978-.4934-2.0544-1.0676.0702-.0176.1405-.0334.2089-.0527.3951-.1615 1.2134-.4302 1.187-.9254-.1176.2002-.374.2459-.5899.2476-.6919.0685-1.3837.0826-2.0773.0808.0439-.0667.0895-.1335.1352-.1967zm-3.5803-9.115c.137-.9763.2371-1.9649.5461-2.9061 1.9385-3.8543 5.9754-5.8648 8.9763-8.7638-.014 1.345.014 2.6901.1247 4.0333-.0264 1.4961-.144 2.9974-.4214 4.4689-.3302 1.8139-1.7454 3.2098-3.3029 4.0948-1.2748.6848-2.6954 1.0026-4.0791 1.403.5321-.5514 1.0553-1.1115 1.4364-1.7805.7902-1.4539 1.7858-3.1747 1.3608-4.8762-.2985.8797-.7796 1.7225-1.2906 2.5022-.8692 1.0693-1.6892 2.1808-2.6181 3.1993-.3125.2879-.6268.5724-.9376.8621.1141-.7357.093-1.5031.2072-2.237zm-9.8437 6.7743c.0755-.4951.151-.9885.2388-1.482.4214-2.0474 1.0887-3.9649 1.6119-5.9929-1.5979 1.7401-2.2177 4.4863-2.597 6.8586-.1054.4214-.1967.8464-.2774 1.2713-.0211-.1089-.0422-.2195-.0685-.3248-.1001-.4109-.2353-.8078-.3565-1.2116-1.5663-4.432.4337-5.5927 3.187-8.6533 2.1107 5.7507 1.1695 5.8596-1.7366 9.5347zm-2.8271-13.1308c.4478-1.1466 1.0536-2.2265 1.6366-3.3099 1.1079-1.5558 2.4565-3.0676 4.0263-4.1739 1.0079-.6163 2.1299-1.0131 3.1905-1.5311 1.7454-.8271 3.3696-1.8806 4.9763-2.9447-.374 2.9535-.8376 6.0772-2.683 8.518-1.475 2.2335-2.5198 3.4785-5.0659 4.5461-1.6629.7533-3.5013.8376-5.3134.9096 1.122-.9061 2.2388-1.8227 3.4363-2.6287 2.1967-1.331 4.1879-3.0623 5.6207-5.208.439-.7393.6884-1.5804 1.0571-2.3495-.5232.3038-.8112.8692-1.201 1.3135-2.5198 3.5592-6.3916 5.8138-9.8174 8.4021-.1598.1352-.3161.2739-.4741.4109.2686-.6339.4091-1.3065.611-1.9561zm-.8516 3.2871c.4724-.0404.9412-.0931 1.4118-.144 1.18-.1808 2.3968-.2722 3.5768-.4916-.4355.3582-.799.8762-1.2327 1.2028-1.7225 1.417-2.7269 3.5048-2.978 5.7032-.2125 1.3539.4144 2.5883.8358 3.8332.2107.676.4302 1.3679.7691 1.993-.137.9043-.2564 1.8121-.3986 2.7164.007.6497-.8973 2.3951-1.3924 3.6541-1.5435 1.7085-2.878 3.5874-3.9948 5.6032-1.2713 2.0369-2.4776 4.1264-3.324 6.381-.0895.3038-.539 1.5224-.9429 2.8288-.1492-1.5276-.23-3.0641-.2915-4.6023-.4056-5.1203-.2423-10.2546-.3652-15.3854.0246-1.777.3055-3.5277.6339-5.2696 2.3406-2.8797 4.7708-5.7208 7.6927-8.021z" fill="#017626"/></svg>