<svg fill="none" viewBox="0 0 36 61" xmlns="http://www.w3.org/2000/svg"><path d="m.204212 23.7187c1.180008.6313 2.480298.8506 3.720058 1.3136 1.01885.4505 2.05185.9379 2.92526 1.636.76572.7862 1.51177 1.603 2.21301 2.4497.47877.3042.91744.6729 1.35296 1.0377.6352.4143 1.1179.9724 1.4457 1.654.1077.1824.2154.3648.3224.5472-.026-.0865-.0527-.1722-.0802-.2587-.5999-1.632-1.6682-3.0667-2.39542-4.6453-.2555-.4316-.59591-.9827-.93002-1.5802-1.02671-1.2201-2.055-2.4457-2.70278-3.9142-.62028-1.8671-.85848-3.8411-1.22011-5.7696-.13443-.6635-.27357-1.3246-.34826-1.9952-.0456-.1227-.08726-.287.02909-.364.17138-.0487.28773.1706.3687.2948.63442.9725 1.2775 1.941 1.87733 2.9363.94416 1.4787 1.99996 2.9095 2.69256 4.5321.28537.6895.62181 1.3609.81211 2.0857.206.8616.2154 1.7547.3734 2.6249.0645.526-.0307 1.092.195 1.5794.0165.0267.0322.0527.0487.0794.7956 1.658 1.5699 3.3482 2.1588 5.0911.4504 1.4402.5943 2.9496.7264 4.4457.1627 1.4316.2681 3.0109.033 4.4598-.0959.6785-.1769 1.3585-.2877 2.0346.6069-1.4245 1.1021-2.8954 1.3852-4.4205.5542-2.0881.8718-4.2248 1.2704-6.3458.1313-1.8294.2138-3.5865.2028-5.4331-.0605-1.0983-.0346-2.1989-.0715-3.2971-.0275-.3302-.0661-.6596-.1125-.9874-.007-.0126-.0149-.026-.0228-.0378-.279-.5857-.68-1.0951-1.0605-1.6155-.8679-1.2256-2.0825-2.1093-3.1422-3.1509-.7476-.6549-1.5998-1.1808-2.32072-1.8695-.52358-.5393-1.02042-1.1124-1.47246-1.7138-.11949-.1863-2.07701-3.4543-1.33724-3.1281.75628.6769 1.45988 1.4198 2.25153 2.0605 1.07699.7744 2.21149 1.4756 3.23889 2.3192.8011.6619 1.434 1.4929 2.0173 2.3466.5016.6816 1.0165 1.4151 1.3876 2.2005-.0441-.2312-.0881-.4623-.1298-.6934-.3356-2.206-1.2177-4.2539-1.8977-6.3639-.1054-.2374-.2123-.4811-.3153-.7288-.2657-.3907-.5393-.7759-.8286-1.1493-.3836-.533-.8844-.9709-1.2389-1.5267-.4128-.63758-.7406-1.32546-1.0912-1.99919-.38916-.7154-.64072-1.48347-.79874-2.27984-.34433-1.1462-.63364-2.3097-.76414-3.5015-.13679-.7327-.54401-1.38756-.66351-2.124969-.22641-1.01885.4371-.405654.66194.058961.96067 1.455948 2.24135 2.657978 3.25625 4.074618.4701.59904.7979 1.28535 1.1368 1.96302.3985.75234.7358 1.54399.8891 2.38596.1045.74448.202 1.48894.3349 2.22874.0833.5574.0739 1.125.1855 1.6784.125.6203.3491 1.2642.3271 1.9025.2476.7327.4559 1.4772.61 2.239.2539.9583.5519 1.9064.7822 2.8702.0016-.1109.004-.2217.0079-.3326-.1337-.1721.0157-.4693.0275-.6721.0165-.1014.033-.2028.0487-.3043.0142-.1124.0315-.2248.0504-.3372.0424-.298.0794-.5959.1092-.8954.243-1.5739-.1839-3.2075.0283-4.7908.1164-1.0354.4159-2.0377.9552-2.93394.5731-1.15721 1.1156-2.33801 1.4198-3.59663.0983-.33412.353-.46855.3805-.03381.0362.44025.0432.88206.0739 1.32309.0487.66902.0715 1.3396.1101 2.01019.0691.53144.136 1.0652.1179 1.603-.0535 1.2051-.3703 2.4009-.7956 3.5251-.4709 1.0141-1.2028 1.9433-1.6855 2.9464-.0881.2367-.1989.4654-.2854.7044-.0157-.0149-.0204-.0652-.022-.0975-.0495.2846-.0998.5692-.1525.853-.0464.4308-.0747.8632-.092 1.2964-.0283.2154.0425 1.0267.0425 1.6336.2327 1.7177.3553 3.4567.4709 5.1831-.037 1.6415.0196 3.2877-.1573 4.9221-.2429 1.647-.3018 3.3215-.6509 4.9527-.2775 1.2185-.4615 2.4591-.8176 3.6588-.4198 1.3333-.8443 2.6681-1.2665 4.0007-.0935.2452-.1926.4874-.2987.7264.6517-.8043 1.3011-1.6093 2.011-2.3648.7995-.8333 1.6108-1.6611 2.3285-2.566.5999-.7877 1.0598-1.6666 1.5566-2.5188.8994-1.3003 1.3278-2.8152 1.9119-4.2656.037-.1526.0739-.3051.1101-.4576.2028-.9347.1666-1.8907.2838-2.834.1533-.8703.3223-1.739.4756-2.6093.1093-.6784.3459-1.3191.6572-1.9292.2547-.5935.5063-1.1894.8223-1.7547.2996-.6155.6816-1.1808 1.0944-1.7256.2955-.4253.5298-.8875.7932-1.3317.2303-.3836.4787-.7579.6501-1.1714.2115-.2468.3098.2107.2736.375-.1226.3876-.2382.761-.2979 1.1706-.1298.6674-.1738 1.3467-.2343 2.0236-.1376 1.2146-.1227 2.4441-.3687 3.6445-.173 1.0385-.3263 2.0943-.7555 3.0644-.5031 1.0731-.9363 2.1973-1.7146 3.1093-.3601.5283-.7146 1.0597-1.1604 1.5212-.1289.1399-.2523.2908-.393.4206-.4379 1.3451-1.0495 2.6391-1.7091 3.8843-.6187.9977-1.4269 1.8601-2.1399 2.7924.2531-.1564.5141-.2987.7445-.4897.7759-.6305 1.6674-1.0771 2.5447-1.5432.0425-.0511.1038-.0967.1486-.1219.706-.4214 1.3939-.8734 2.0975-1.2987.9826-.7736 2.0778-1.3687 3.1414-2.0189.9316-.6635 2.0133-1.029 3.0817-1.4064 1.0637-.3647 2.18-.4827 3.2916-.5888.6164-.1163 1.239-.2351 1.8695-.1918.1769.0243.4206-.0448.5527.1006.0503.2909-.3381.4174-.5621.4898-.5873.2225-1.1573.489-1.7107.7838-1.4693.849-2.8286 1.8946-4.3962 2.5628-1.0597.5511-2.1847.967-3.3607 1.184-.7492.1949-1.4977.3938-2.2697.4795-.6477.1164-1.2735.3302-1.9064.5094-.5982.3436-1.1863.7068-1.7641 1.0889-.3742.2397-.7775.4323-1.1454.6815-.4206.3915-.8805.7335-1.3223 1.0999-.0244.0204-.048.0408-.0723.0621-.7885.9717-1.662 1.8734-2.6046 2.6973-.8262 1.007-1.6847 2.0872-2.5196 3.1233-.0259.0464-.0526.0928-.0786.1392-.625 1.3262-1.4386 2.5329-2.36236 3.6689-.79086.9819-1.43865 2.0723-2.25782 3.0314-.32075.3962-.7264.7138-1.14149 1.0063-1.60846 1.2618-3.12494 2.643-4.7169 3.9276-.04324.0362-.08412.0464-.12107.0393-.317601-.1989-.351403-.7822-.12185-1.0707 1.37812-1.1572 2.76489-2.3066 4.11314-3.4984.86005-.8537 1.65012-1.7743 2.54476-2.5951.83883-.8459 1.46617-1.8608 2.05264-2.8914.59745-1.2351 1.52675-2.2602 2.17995-3.4607.1471-.2767.2925-.5558.4356-.8356.0133-.6769.3569-1.6698.3875-2.0417.1958-.9386.4261-1.8749.4796-2.8348.0157-.3106.0354-.6211.055-.9324-.1604-.4064-.3223-.82-.533-1.2044-.4803-.6438-1.0723-1.2248-1.7617-1.6438-1.6832-1.0008-3.27829-2.2453-4.40799-3.8624-.16981-.2287-1.87104-3.0235-.87498-2.632.62498.5016 1.27199.9764 1.94886 1.4072.47484.3121.91272.6879 1.419.9489.69417.3027 1.39301.6218 1.95911 1.1368.7916.8018 1.5597 1.6815 1.9315 2.7633.1447.3569.2862.7209.3971 1.0919 0-.3616-.0134-.7224-.0441-1.0833-.1588-1.1863-.3899-2.3655-.6839-3.5282-.3672-.6517-.7453-1.2964-1.1226-1.9418-.6187-1.0023-1.3562-1.6423-2.41745-2.1486-.18082-.0911-.35456-.1933-.52751-.2987-.19733-.0707-.39544-.1384-.59512-.2028-1.63597-.5865-3.38751-.9497-4.82066-1.9835-.85298-.5943-1.46775-1.4544-2.14777-2.2271-.237411-.2941-.463039-.6093-.698097-.9198-.127357-.1368-.588039-.6565-.117134-.5865l-.003147.0016z" fill="#017626"/></svg>