<svg fill="none" viewBox="0 0 113 106" xmlns="http://www.w3.org/2000/svg"><path d="m111.936 75.7589c-.894-.1387-1.69.3512-2.532.5567-1.061.2212-1.879.4144-3.015.5759-5.028.504-10.0618.9113-15.0556 1.7243-5.1783.8271-9.9755 3.2274-14.5374 5.7472-.0298.0052-.0597.0105-.0895.014-4.9166.6813-10.1229 1.9877-13.6857 5.6664-.2775.3336-.7428.7691-1.2608 1.2572.9974-1.4064 2.2353-2.6268 3.4873-3.8103 4.2792-4.1809 9.4328-7.245 13.9526-11.1431.2124-.1423.4249-.288.6356-.432.0018.0035.0053.007.0088.0088.5847.0966 1.3802-.9026 1.935-1.1923 1.9632-1.3679 3.8104-2.8867 5.7683-4.2546 3.1975-1.8262 6.4987-3.5505 9.0395-6.288 1.8349-1.8068 2.8569-4.2054 3.7519-6.5759 1.809-4.2388 3.119-8.5953 2.833-13.2731-.492-3.7945-2.492.1475-3.2083 1.4996-2.5689 3.719-5.1677 7.424-7.0325 11.5645-1.345 2.5549-2.6988 5.1343-4.5285 7.3819-1.5909 1.7349-3.2344 3.4188-4.7393 5.2292-1.0325 1.1168-2.1369 2.1703-2.964 3.4574-.1404.0825-.2879.2107-.4301.367-.8236.6673-1.6664 1.3099-2.5444 1.9052-1.2063.8323-2.4987 1.7103-3.8226 2.6391.7023-1.4539.8428-3.2361 1.2765-4.7638.5988-2.0228.8955-4.1159 1.4434-6.1493.0316-.0948.0615-.1913.0931-.2862.0052-.007.0122-.014.0175-.021.4091-.655.8376-1.2994 1.2801-1.9333 3.1466-3.5066 6.2985-7.1028 8.5215-11.2871 2.216-4.6901 3.863-9.7015 4.6268-14.8394.1317-1.6347 1.1361-3.8718.3512-5.3801-.9078-.5093-2.2563 2.9868-2.8287 3.6769-1.2064 1.8665-2.5216 3.6593-3.7507 5.5118-2.0299 3.4627-4.6848 6.5532-6.3723 10.2108-1.3977 2.9587-2.5355 6.0474-2.5636 9.3555-.1071.9535-.2002 1.914-.13 2.8675-1.3924 4.46-2.2756 9.0764-2.8937 13.698-4.8973 3.4943-10.0282 7.6699-12.6199 12.6971-.0351-.4337-.0685-.8692-.1053-1.3029-.367-4.9728-.6831-9.9368-1.1168-14.892.5285-2.3372 1.2607-4.6199 2.0562-6.8798.6971-2.1229 1.5522-4.1844 2.4846-6.2107 1.0255-2.3494 1.8262-4.8025 2.9324-7.1115 2.9131-4.1493 5.8034-8.3424 9.317-12.0035 3.3556-3.8613 5.6681-9.0395 4.676-14.2178-.3793-2.7392-.655-5.5171-1.561-8.1457-.2933-.6515-.6726-2.0685-1.3486-2.3407-1.5171.2037-1.7173 2.3389-1.6716 3.5821-.0158 3.3556-.9517 6.5602-1.8613 9.7577-.6795 2.525-1.1045 5.1273-2.0509 7.5733-.7867 1.9403-1.9667 3.6875-2.878 5.5663-.662 1.3679-1.1536 2.806-1.7401 4.2072-1.0676 2.2863-2.0545 4.6199-2.8692 7.0027-.2055.5654-.4302 1.1325-.6251 1.7067-1.5101 3.3152-2.9219 6.669-4.1019 10.1317-.1633.5373-.6497 1.9895-1.115 3.6067-.3564-3.5066-.7954-7.0096-1.3731-10.5075-.5724-5.3608-1.6787-10.676-2.5444-16.0105-.0263-1.3556-.0579-2.7094-.0368-4.0632.5092-3.7384.9289-7.5927 2.3424-11.1186 1.9297-4.2388 3.4715-8.6181 4.6549-13.1203.4443-1.3274.8534-2.6795.9711-4.0807.2265-2.6269.2159-5.26606.4144-7.89645.014-.71641.2827-6.08253-1.2608-4.767345-1.5101 2.302025-3.0588 4.321345-4.7252 6.577715-1.403 1.74539-2.7814 3.52418-3.6804 5.59088-2.2037 4.9008-4.2968 10.0299-4.0299 15.5083.0158 3.7086-.1299 7.5102 1.3837 10.9851.8551 2.8288 2.0088 5.9965 2.8376 8.9079.0632.8867-.1528 1.8472.2388 2.676.0579.1703.2019.3301.3599.3916.1107.6198.2231 1.2379.3354 1.8577.0229.2195.0457.439.065.6585.223 1.5645.583 3.1098.6883 4.6901.3881 4.2722 1.0466 8.295 1.166 12.6286.3705 4.5444 1.194 9.0448.8235 13.6208.1106 3.1238.2177 6.2528.2564 9.3819-.8745-.7638-1.7911-1.4873-2.6234-2.288-1.5154-1.4416-3.0939-2.8095-4.7691-4.0579-.2669-.4179-.5197-.8429-.7357-1.2854-1.5136-3.0676-2.8692-6.2967-3.4662-9.6945-.0369-.2598-.072-.5197-.1054-.7796 0-.7392.0035-1.4785.007-2.2177-.021-4.3407.5163-8.7604.7955-13.0975-.0018-4.6357-1.0676-9.2941-3.5259-13.2573-1.7437-3.1501-3.0764-7.0079-6.0545-9.1764-1.1817.1598-.2283 1.9578.0422 2.6444.3178 1.0676.5109 2.1703.7375 3.259.6953 4.0421.5759 8.1791 1.3257 12.2177.4881 2.3319.4776 4.7323.8955 7.0712.5162 2.6567 1.4627 4.971 2.381 7.5803.6813 1.7015 1.331 3.4118 1.8877 5.1572v.0193c.0228.0544.0474.1106.0685.1668.0035.0088.007.0193.0105.0281.0649.1756.1299.3512.1931.5268.0299.079.0527.1615.0773.2423.0386.1212.0773.2423.1159.3635.0579.1843.1106.3722.165.5584.1019.3476.2107.6918.3266 1.0359.0387.0176.0755.0299.1107.0352.3108 1.1905.6444 2.3757.9886 3.5522.3459 1.1589.7989 2.2739 1.3239 3.3538-1.7471-1.2379-3.3608-2.6497-5.043-3.9719-1.5838-1.1817-3.3117-2.1738-4.8235-3.4469-1.7648-1.6997-3.4259-3.5276-4.9799-5.4416-.3371-.7111-.8305-1.3643-1.1589-2.079-.7568-1.4223-1.3327-2.6848-1.9841-4.1967-1.3205-3.4679-1.6559-7.3117-2.9728-10.806-1.166-4.0667-2.8991-7.9104-4.4496-11.8314-.8551-2.6392-1.7454-5.2643-3.1185-7.691-.4091-.7392-1.3661-.8955-1.2766.1475.065.7217.3108 1.4083.4057 2.1265.518 2.9517.8007 5.935 1.0641 8.9166.2862 4.1475 1.2537 8.4864 2.1264 12.5777 1.3134 4.2686 4.4091 7.5803 7.5206 10.6918.9008 1.6366 1.8578 3.2362 3.0378 4.6919 1.3187 1.698 2.978 3.05 4.6251 4.4091-.6585-.2195-1.3187-.4284-1.9842-.6321-1.5593-.6216-3.1027-1.2784-4.6795-1.9421-4.8464-2.4706-8.7533-6.5426-13.6436-8.9482-3.4908-1.3169-7.24321-1.8665-10.86569-2.7305-1.28358.0053-4.28624-1.3836-5.06587-.165-.019315.367.340667.5742.60932.7586 2.10887 1.4907 3.98069 3.3204 5.78929 5.1588 3.06765 3.3012 7.00265 5.4873 11.13615 7.1713 5.1799 2.4776 11.0026 3.2748 16.6918 2.8059 2.6374 1.0694 5.2327 2.2494 7.7717 3.5347.9535.7305 1.9351 1.4258 2.9447 2.0843 1.8157 1.3837 3.6137 2.7884 5.461 4.1265l.0772.1158c.1265.0843.2529.1721.3811.2546.1773.1159.3494.2371.518.3653.0632.0474.1246.0948.1843.1475.051.0439.1036.0878.1528.1334.0281.0194.0562.0387.0843.058.0088.007.0158.0123.0246.0175.014-.0175.0281-.0368.0404-.0561.4231.2932.8498.5812 1.2783.8639 1.4785.9763 2.82 2.1949 3.9613 3.5803-.0035 1.1343-.0193 2.2704-.0509 3.4047.1124 1.6998-.7796 4.5178.6181 5.7508.0544.035.1124.061.1686.084.504.195 1.0781-.054 1.5277-.311 1.1097-.697 1.043-2.344 1.1659-3.515.007-.225.014-.451.0193-.681.0105-.009.0193-.018.0281-.027-.0035-.042-.0053-.084-.0088-.126-.0105-.137-.0193-.274-.0298-.411-.0036-.054-.0088-.109-.0106-.163-.0053-.223-.014-.4445-.0193-.6675v-.2353c0-.1299.0018-.2598.0035-.3898 0-.1896.0088-.3793.0158-.5672 0-.0456.0035-.0913.0035-.1387v-.0035c0-.079.0053-.1598.0071-.2405 0-.0387.0017-.0791.0035-.1177-.0211-.0439-.0439-.0878-.0668-.1317-.0685-.7164-.1861-1.4223-.381-2.1018-.0404-.5286-.0825-1.0624-.1229-1.5979 1.1414-1.2134 2.3336-2.3793 3.5259-3.5435 1.8455-1.1589 3.9948-1.7471 6.0141-2.5373 1.8683-.662 3.7998-1.2871 5.7664-1.7208 3.0588.1756 6.1142.3705 9.1818.2054 6.3863.3653 12.9956-.374 18.4179-4.0386.894-.576 11.027-5.9017 8.478-6.8587zm-19.0328-15.5417c1.8384-5.4258 6.0315-9.5803 8.4428-14.7234.616 2.6303-.148 5.2923-.713 7.8648-.6412 2.9236-1.8475 5.6927-3.6192 8.1088-1.389 2.0316-3.5084 3.2854-5.5242 4.6094 3.3767-3.1326 6.6409-6.5936 7.9754-11.0835.2424-1.0711.4759-2.1949.2582-3.2853-.7604 1.2976-1.1572 2.7954-1.9017 4.1141-1.3415 3.1186-3.8051 5.4926-5.9754 8.0386-1.166 1.2907-2.4847 2.4268-3.8315 3.5295 1.921-2.1932 3.7437-4.4882 4.8886-7.1747zm-14.4689 1.8701c1.8121-5.9158 5.9315-10.7656 8.604-16.2424.1124-.5548 0-.8375-.2036-.9166-.2669-.1036-.6884.1458-.9605.5918-1.4118 2.2915-2.9869 4.8077-4.3706 7.2221-1.5487 2.8095-2.8393 5.756-4.1264 8.6971.302-2.2879.9693-4.5303 1.8016-6.676 1.403-2.5479 2.8271-5.0869 4.2827-7.6084 2.1159-3.1677 4.7024-6.0123 6.4495-9.4241-.3669 3.4083-1.2818 6.7445-2.0052 10.0896-.9026 2.6865-2.3459 5.1606-3.7296 7.6224-1.8156 2.8113-4.1791 5.2134-6.1545 7.9035.1404-.4179.2791-.8376.4126-1.259zm-27.8631-31.5909c.0158-4.2564.8587-8.5303 2.1563-12.5742 1.1027-2.9008 3.1185-5.3275 4.6866-7.97897 1.3889-2.01932 3.1238-3.78052 4.4267-5.8648-.1686 4.62862.0105 9.46097-1.698 13.84197-.8745 1.9877-1.5206 4.058-2.2581 6.0966-1.3907 3.475-2.8394 6.9745-3.7226 10.6163-.1738.7867-.2792 1.5804-.3389 2.3776-.1844-2.4074-.2406-4.8271-.0983-7.2608.7304-4.9096 2.3055-9.6699 3.9157-14.3477 1.6365-5.88411.4267-4.1036-1.4732-.1106-2.4074 6.4987-3.8754 13.3889-3.8227 20.3389.0579 1.7981.3793 3.5628.6673 5.3328-1.2274-3.3767-2.2441-6.8622-2.4373-10.4654zm26.8271-7.7612c1.4504 4.8305 2.3828 6.7287 1.6313 12.0158-.2705 2.4442-1.6927 4.4829-3.1063 6.4179-1.208 1.6962-2.5812 3.2572-3.935 4.8323 1.0939-1.8806 2.1966-3.7542 3.3503-5.5979 1.5645-3.561 3.0781-7.41 3.1484-11.3415-.058-1.1835-.1756-2.4917-.9833-3.4171-.1036.9816-.0176 1.9737-.0843 2.957-.4899 4.7375-2.4671 9.1273-4.5689 13.3539-.6936 1.1062-1.4487 2.2054-2.1967 3.3169 1.0483-2.2985 2.1088-4.5935 3.0588-6.9359 1.9034-5.0044 2.6515-10.3723 3.6857-15.6014zm-36.6638 35.3503c-.3266-5.6628-.9341-11.3117-2.2476-16.8376 4.5777 6.4864 7.2696 12.2898 6.7217 20.4057.0597 1.4855-.086 2.957-.2669 4.4232-.0895-.813-.1844-1.6278-.2897-2.439-.2564-4.3582-.9798-16.9904-5.2959-18.9167 2.0843 4.0123 2.7902 8.5426 3.338 12.9816.8675 4.1335.8253 8.3512 1.173 12.5391-1.6962-3.8472-2.4636-8.0246-3.1326-12.1563zm-13.4785 4.7059c-.6392-1.6278-1.396-3.2081-1.8051-4.9148-.5601-2.0422-1.1536-4.223-2.5303-5.8754-.0667.878.1019 1.8771.223 2.7884.4952 3.5821 1.7981 7.015 3.0624 10.3934-.2318-.2722-.4531-.5391-.6585-.8025-2.892-3.4416-3.8209-8.0983-4.0738-12.4811-.4389-3.9017-1.0904-7.7735-1.6997-11.6489 2.7111 6.4215 5.194 13.0062 7.0026 19.7472.6638 2.1299 1.2432 4.2862 1.8754 6.4267-.5303-1.1817-.9465-2.4161-1.396-3.633zm-.2335 16.9675c-2.792-.5952-5.554-1.4047-8.2617-2.3055-5.7085-2.5092-10.21949-7.0781-14.94469-11.036 3.24671.8639 6.67779.9359 9.85429 2.0299 3.403 1.4468 6.2265 3.8489 9.2485 5.9192 1.0834.6655 2.1668 1.338 3.2607 1.9912-1.6786-.5092-3.3977-.8885-5.0746-1.4083-3.0852-1.3029-6.1106-2.8551-8.8639-4.741.8059 2.8885 3.8244 4.59 6.2757 6 1.187.4952 2.395.9342 3.6031 1.3732.8393.3055 1.6787.6111 2.511.9341 2.3248.8025 4.8218.8815 7.18 1.5593-1.5962-.1036-3.1941-.1967-4.7884-.3161zm69.0413 4.806c-3.3099.5742-6.6813.8077-10.0369.9078-.3722-.0105-.7445-.0263-1.1167-.0474 1.108-.1457 2.2124-.3248 3.3134-.5461 1.5505-.1738 3.1413-.1369 4.6532-.5671 1.4118-.4373 2.892-.6866 4.2423-1.2977.8043-.4056 1.5259-.971 2.195-1.5645-1.0536-.3231-2.1563-.216-3.2116.0298-1.0782.2652-2.1967.1879-3.2924.3231-2.3073.3442-4.5883.7972-6.9324.8341-1.4627.1106-2.8956.3951-4.3231.7147 3.5224-1.7683 7.2906-2.9535 11.1396-3.8104 5.5768-.4039 11.1588-.7621 16.6038-2.1493-3.961 3.1291-8.381 5.7156-13.2359 7.1783z" fill="#017626"/></svg>