<svg fill="none" viewBox="0 0 51 129" xmlns="http://www.w3.org/2000/svg"><path d="m50.8527 75.9509c-.1194-1.1958-.216-2.5128-1.0378-3.461-.539-.5144-1.1448-1.2748-1.9824-1.1466-1.2011.425-1.9526 1.6137-2.8148 2.4952-.6918.8253-1.4398 1.6049-2.0632 2.4864-1.1835 1.6312-2.0509 3.4592-2.9289 5.2643-.9447 1.9157-1.8806 3.8595-2.3582 5.9526-.4864 1.8542-.7111 3.7629-1.0114 5.654-.3108 1.6717-.5391 3.3521-.4565 5.0554-.0843 1.8318-.439 4.3778-.2388 5.9908-.1317.455-.2652.908-.4109 1.358-.8394 3.053-.9061 6.247-.5777 9.394-2.0158-4.973-3.108-10.267-4.6023-15.4101-.0843-.2862-.1616-.5742-.2318-.8622 0-.1158.0018-.2317.0035-.3476.0439-3.4487.6919-6.8341 1.0255-10.2582.3652-2.1808.906-4.3283 1.4609-6.4741.2406-.2634.4197-.9411.5865-1.1764.5935-1.2257 1.173-2.4618 1.863-3.6366.7463-1.1694 1.4364-2.446 2.2107-3.6716 1.2432-1.7068 2.5075-3.396 3.5101-5.2608 1.6313-2.957 3.7068-5.6663 4.8815-8.8569 1.3732-2.9043 2.3372-6.0316 2.1686-9.2748.0263-2.1545-.2634-5.2678-2.6602-6.0281-1.7208.0106-3.8385 3.6875-5.094 4.9271-1.7348 1.9193-2.9763 4.216-4.2669 6.4408-.9096 1.8191-1.4311 3.7946-2.1317 5.6945-.9728 2.4951-1.4047 5.1519-1.4715 7.8226-.1439 2.0229-.323 4.0422-.1352 6.0703.072 1.647-.0983 3.2959.0088 4.9429-.2511.8587-.4829 1.7243-.6672 2.6041-.4021 1.7313-.597 3.4995-.9623 5.2379-.4583 1.9403-.6988 3.9175-.8499 5.9034-.0438.453-.0948.9078-.1404 1.3609-.0931-.7393-.1844-1.4803-.2933-2.216-.5566-3.554-1.2116-7.0905-1.5329-10.6761-.8639-4.6602-.6813-9.3819-1.101-14.0843-.2388-3.0008-.2247-6.0158-.4442-9.0184.0755-.3372.1387-.5953.1826-.6901.6725-2.5865 1.9403-4.957 3.0044-7.396.4864-1.1677 1.0606-2.2879 1.7103-3.3608.7884-.8464 1.5382-1.7331 2.4249-2.4864 2.0281-1.6084 4.079-3.1782 5.9386-4.9851 3.3836-2.683 6.7954-5.424 9.2203-9.05 1.5839-2.6234 3.2345-7.3152-.1316-9.2187-2.8025-.7638-6.4601 3.0887-8.137 5.0694-1.7595 2.4407-3.5523 4.8885-4.9833 7.5417-.9342 1.7559-1.6489 3.6137-2.5233 5.3977-.7305 1.3328-1.3749 2.9289-1.8402 4.4022-.5672 1.4293-1.245 2.8902-1.5716 4.4056-1.4118 2.604-2.5233 5.3556-3.4047 8.1879-.0404-2.8956.1545-5.7841.2704-8.6778.0808-3.9122-.0316-7.8297.6268-11.7033.0527-2.0948.4285-4.1475.8271-6.1967.7059-1.338 1.6295-2.539 2.4934-3.784 1.1624-1.5856 2.1545-3.2818 3.2573-4.9078 2.2616-3.0887 4.3775-6.2968 5.726-9.8982.9131-2.51271 2.1282-6.7603 1.0975-9.29586-.5654-1.120279-1.6594-2.219491-3.0062-2.089552-1.5276.180861-2.6918 1.327482-3.8454 2.245832-1.4803 1.16769-2.5022 2.79017-3.2854 4.48289-.7462 1.65232-1.5768 3.27479-2.0562 5.03069-.6005 2.0018-.8762 4.072-1.1238 6.1405-.3231 1.8912-.5215 3.7998-.4741 5.7191-.093 2.151-.2967 4.309-.2634 6.4618-.3231 1.8525-.5355 3.7313-.8182 5.547-.2775 2.3494-.0562 4.734-.2933 7.0904-.2335 2.3266-.3634 4.6567-.3915 6.9886-.295-.7111-.59-1.4205-.8938-2.1282-.5917-1.6172-.9921-3.4398-1.5716-5.0834-.9376-2.4513-1.6786-4.9675-1.9596-7.5838-.2265-1.0255-.4231-2.0562-.6075-3.0887.0667-6.3143.971-12.6269.8358-18.9535-.1598-3.19229-1.0307-6.53031-3.4522-8.76385-3.5838-3.926257-5.3994 2.69184-5.3432 5.53293.0298 2.77432.2862 5.56632.7252 8.30732.467 2.6058 1.4855 5.0588 2.3652 7.5434.6953 2.0158 1.9649 3.7349 2.7586 5.7138.388.8815.834 1.7402 1.1712 2.6427.0737.3108.093.662.3037.9166.1458.8095.3301 1.6119.5584 2.4056.741 2.4179 1.1607 4.9236 1.9649 7.3258.8973 2.6848 2.0702 5.2695 3.1536 7.8841.0159.7462.0422 1.4943.0791 2.2423.0702 3.1273-.2336 6.2546-.0738 9.3784.1282 1.9245.2599 3.849.3986 5.7717-.1931-.618-.3968-1.2344-.6163-1.8437-.9482-2.439-2.4039-4.6286-3.5523-6.9693-.4565-.9991-.9921-1.9526-1.5943-2.8639-.1721-.4635-.4267-.9183-.5795-1.3626-.3161-.8218-.6111-1.6506-.9517-2.4635-.7814-2.3038-1.4416-4.7217-2.4074-7.0115-.5233-1.3766-1.2081-2.676-1.9596-3.9403-.7603-1.3591-1.396-2.7849-2.1791-4.1317-1.2625-1.8911-2.2757-4.158-4.26516-5.3995-1.94908-1.0535-4.78491-2.604-5.32398.7182-.31958 2.4373.6374 4.8446 1.68745 6.9974.91308 1.8068 1.72608 3.6752 2.87094 5.3521 1.08692 1.5891 2.64443 2.7497 3.92095 4.1703 1.2011 1.4311 2.5461 2.7094 4.0246 3.8507 1.4996 1.5031 3.0202 2.9886 4.4882 4.5216.0439.1071.1176.2423.216.3301.0755.1229.151.2476.2265.3722.7954 1.2274 1.7155 2.4513 2.3828 3.7753 1.0711 2.2265 2.0263 4.5092 3.0658 6.7515.2968.9096.5602 1.8315.8148 2.7533.1422 1.8385.2915 3.6752.4512 5.5119.3108 6.8288 1.461 13.6277 2.9921 20.2845.1633.9304.3231 1.8614.4935 2.7904.0316.597.1053 1.104.2598 1.352.0404.196.0808.391.123.588-.7832-1.213-1.612-2.395-2.5971-3.468-1.3134-1.6839-2.683-3.3204-4.1633-4.8603-.0088-.0088-.0158-.0193-.0246-.0299-.0421-.0685-.0825-.1352-.1211-.2037-1.3012-2.2107-2.885-4.3476-4.1019-6.6233-1.0412-2.1721-2.2265-4.2564-3.4486-6.3284-1.8595-3.7366-3.4873-7.612-5.88588-11.0483-1.38894-1.763-3.41703-3.4627-5.66638-3.8894-1.25724-.0948-2.70588.741-3.028973 2.0035-.560141 2.8464.765583 5.6875 1.812123 8.2775.76734 1.7454 2.01931 3.1923 3.19754 4.6672 1.12555 1.5294 2.2511 3.0694 3.61194 4.4004 1.58033 1.5206 3.36433 2.813 5.04483 4.2195 1.3011.9798 2.7796 1.6927 4.0017 2.7831.9078.7639 1.9315 1.3679 2.8552 2.1089.6426.5514 1.4135.9025 1.7717 1.7085.1018.1598.2686.3459.46.3934.0316.0087.0633.0122.0949.0087.1475.2107.2914.4232.4319.6374.7744 1.0343 1.6418 1.9932 2.5321 2.9272 1.4117 1.768 2.7585 3.575 4.0281 5.443.0245.085.0509.167.0772.248.7235 2.476 1.4803 4.941 2.4144 7.347 1.4294 4.765 3.0975 9.445 5.5084 13.817.8885 1.101 1.8068-1.566 1.3029-2.451-1.5681-2.748-2.5707-5.763-3.8385-8.653-.1299-.757-.2915-1.514-.3441-2.28-.1792-2.142.0298-4.302.2475-6.435.0685-.825.2037-1.631.3899-2.423.4179-.464.5144-1.279.834-1.8.9131-1.956 1.849-3.91 2.9781-5.7507 3.6523-4.8341 7.7032-9.6014 9.4908-15.5136.9815-2.2704 1.5294-4.7323 1.2502-7.2099z" fill="#44a301"/></svg>