<svg xmlns="http://www.w3.org/2000/svg" id="Calque_2" data-name="Calque 2" viewBox="0 0 119.32 29.39">
  <defs>
    <style>
      .cls-3{fill:#fefff7}
    </style>
  </defs>
  <g id="Calque_2-2" data-name="Calque 2">
    <g id="Calque_1-2" data-name="Calque 1-2">
      <g id="mante">
        <path d="M4.89 29.39C-1.99 19.86-1.08 9.97 4.33 0c3.44 2.34 6.56 5.29 8.6 8.85 1.58 2.69 2.74 5.56 3.68 8.52l-2.34-.86c.02.1.19.11.39-.02.54-.3.99-.97 1.36-1.54.22-.33.44-.72.64-1.06h.5c.73 2.02.65 4.63-1.46 5.93l-1.22.71-1.12-1.57c-1.72-2.43-3.33-4.92-4.88-7.42C7.25 9.58 5.47 6.28 3.8 4.77l3.1-.6c-5.08 7.64-5.81 16.74-1.58 24.97l-.43.25Z" class="cls-3"/>
        <path d="M6.02 5.41c-.18.13-.18.41-.23.63-.24 1.64-.1 3 .69 4.58-1.99-.71-2.34-3.72-.84-5.08.1-.07.25-.2.39-.13ZM3.98 8.92c-.15.17-.09.44-.1.66.07 1.63.37 2.95 1.5 4.3-2.12-.22-2.97-3.17-1.75-4.76.09-.09.2-.24.35-.2Zm-.91 3.59c-.18.13-.18.41-.23.63-.24 1.64-.1 3 .69 4.58-1.99-.71-2.34-3.72-.84-5.08.1-.07.25-.2.39-.13ZM34.7 29.14c4.23-8.23 3.5-17.33-1.59-24.97l3.1.6c-1.66 1.5-3.45 4.82-4.68 6.77-1.55 2.5-3.16 4.99-4.88 7.42l-1.12 1.57-1.22-.71c-2.11-1.3-2.19-3.92-1.46-5.95h.5c.21.36.42.74.64 1.07.37.56.82 1.24 1.36 1.54.21.13.37.11.39.02l-2.34.86c1.43-4.47 3.33-8.83 6.49-12.39C31.41 3.17 33.7 1.41 35.7 0c3.88 7.21 5.98 15.35 2.79 23.23-.84 2.22-2 4.28-3.35 6.16l-.43-.25h-.01Z" class="cls-3"/>
        <path d="M34.01 5.41c.14-.07.29.05.39.13 1.5 1.36 1.14 4.37-.84 5.08.79-1.58.93-2.94.69-4.58-.05-.22-.05-.49-.23-.63Zm2.03 3.51c.15-.03.26.11.35.2 1.21 1.58.36 4.53-1.75 4.76 1.13-1.34 1.43-2.67 1.5-4.3 0-.22.04-.49-.1-.66Zm.95 3.59c.14-.07.29.05.39.13 1.5 1.36 1.14 4.37-.84 5.08.79-1.58.93-2.94.68-4.58-.05-.22-.05-.49-.23-.63ZM20.1 14.16c-3.14-.59-4.36-6.49-3.5-8.11 2.25-3.21 5.73-2.95 7.69.11.98 1.25-1.17 7.66-4.18 8h-.01Z" class="cls-3"/>
        <path d="M18.2 7.8c.4.93.24 2.39-.35 2.58s-1.4-.29-1.81-.95c-.79-1.26-.75-1.59-.15-2.16.84-.8 1.87-.47 2.31.53Z" class="cls-3"/>
        <path fill="#263628" d="M17.57 10.49c-.6 0-1.26-.48-1.59-1.03-.78-1.24-.8-1.62-.13-2.25.39-.38.86-.53 1.31-.44.48.1.89.46 1.12 1 .29.66.3 1.63.04 2.22-.11.24-.26.4-.44.46-.1.03-.2.05-.3.05h-.01Zm-.67-3.6c-.33 0-.66.15-.96.43-.57.54-.62.81.16 2.07.41.66 1.2 1.08 1.73.92.14-.04.26-.17.35-.38.25-.55.23-1.47-.04-2.1-.22-.49-.59-.83-1.02-.91-.07-.01-.15-.02-.22-.02Z"/>
        <path d="M22.26 7.8c-.4.93-.24 2.39.35 2.58s1.4-.29 1.81-.95c.79-1.26.75-1.59.15-2.16-.84-.8-1.87-.47-2.31.53Z" class="cls-3"/>
        <path fill="#212300" d="M22.9 10.49c-.1 0-.21-.01-.3-.05-.18-.06-.33-.22-.44-.46-.26-.59-.25-1.56.04-2.22.24-.54.65-.9 1.12-1 .45-.09.91.07 1.31.44.66.63.64 1.01-.13 2.25-.34.54-1 1.03-1.59 1.03h-.01Zm.67-3.6c-.07 0-.15 0-.22.02-.43.09-.8.42-1.02.91-.27.62-.29 1.54-.04 2.1.09.2.21.33.35.38.52.17 1.31-.25 1.73-.92.78-1.25.72-1.53.16-2.07-.29-.28-.62-.43-.96-.43Z"/>
        <path d="M13.49 1.19c.25-.29.73-.14 1.07-.11 2.59.53 4.71 3.06 4.26 5.76 0-.74-.1-1.47-.37-2.15-.71-1.86-2.51-3.25-4.45-3.6-.17 0-.39-.05-.51.11Zm13.7.63c-.27-.25-.72-.06-1.04 0-2.47.71-4.4 3.01-4.28 5.64-.09-.73-.06-1.5.18-2.21.64-1.95 2.59-3.46 4.63-3.6.17 0 .41 0 .51.17Z" class="cls-3"/>
      </g>
      <path d="M54.91 24.21c-.3-.03-.59-.04-.86-.04h-1.62c-.27 0-.54.01-.81.04-.2-.62-.41-1.25-.63-1.9s-.44-1.29-.68-1.94l-1.22-.03h-2.21c-.33 0-.66.02-.99.03-.25.65-.49 1.29-.7 1.94-.22.65-.41 1.28-.59 1.9-.15-.03-.3-.04-.45-.04h-.9c-.15 0-.32.01-.49.04.15-.33.35-.79.61-1.37.25-.58.53-1.24.84-1.98.3-.73.63-1.52.98-2.36s.7-1.69 1.04-2.56c.35-.86.69-1.71 1.03-2.55.33-.84.64-1.62.92-2.34.13.03.25.05.36.07s.23.03.36.03.25 0 .36-.03c.11-.02.23-.04.36-.07.41 1.08.84 2.23 1.3 3.46s.93 2.44 1.4 3.62c.47 1.18.92 2.31 1.37 3.37.44 1.06.85 1.96 1.22 2.7Zm-6.73-9.48c-.33.76-.64 1.51-.93 2.25s-.58 1.5-.86 2.27h3.48c-.28-.77-.55-1.53-.83-2.27-.27-.74-.56-1.49-.87-2.25h.01Zm8.86.21c0-.87 0-1.61-.04-2.2-.03-.6-.04-1.12-.06-1.58.35.06.64.1.86.1s.5-.03.85-.1c1.38 1.53 2.75 3.04 4.09 4.52 1.35 1.48 2.73 2.99 4.15 4.52v-5.33c0-.6-.01-1.16-.02-1.66 0-.51-.02-.94-.04-1.31-.02-.37-.04-.61-.07-.74.35.06.64.1.86.1s.5-.03.85-.1c-.06 1.15-.11 2.19-.15 3.13-.04.93-.07 1.81-.1 2.63s-.04 1.64-.05 2.44v4.85c-.25-.03-.51-.04-.78-.04s-.53.01-.74.04c-2.61-3.04-5.38-6.1-8.3-9.18l-.03 1.1v5.26c0 .53.02.98.03 1.35s.03.67.04.9.03.42.04.56c-.15-.03-.3-.04-.46-.04h-.44c-.29 0-.58.01-.87.04.02-.1.06-.46.09-1.08.04-.62.08-1.38.12-2.27.04-.89.08-1.86.11-2.91s.05-2.05.05-3.01Zm16.84-1.69c0-.3-.02-.53-.05-.67-.19 0-.42 0-.7.02s-.58.03-.89.05c-.32.02-.64.04-.97.08-.33.03-.63.07-.91.1.02-.14.05-.28.07-.42s.03-.28.03-.42 0-.28-.03-.42c-.02-.14-.04-.28-.07-.42.43.01.82.03 1.17.04s.7.02 1.06.03c.36 0 .75.01 1.18.02h3.06c.42 0 .81-.01 1.17-.02.35 0 .7-.02 1.04-.03.34-.01.7-.03 1.09-.04-.03.14-.05.28-.07.42s-.03.28-.03.42 0 .28.03.42c.02.14.04.28.07.42-.25-.04-.54-.07-.86-.1-.32-.03-.63-.06-.94-.08s-.6-.03-.88-.05c-.28-.01-.51-.02-.7-.02-.01.06-.02.15-.03.27v6.16c0 1.05.01 1.99.04 2.8.03.82.06 1.62.11 2.4-.22-.03-.45-.04-.7-.04h-1.71c-.25 0-.49.01-.7.04.05-.79.09-1.59.11-2.4.03-.82.04-1.75.04-2.8v-5.76h-.03Zm14.13 11.21c-.81 0-1.57-.09-2.27-.26s-1.31-.46-1.83-.86c-.52-.4-.93-.91-1.23-1.54s-.45-1.39-.45-2.29v-4.45c0-1.03 0-1.86-.02-2.49s-.03-1.11-.06-1.43c.25.03.51.05.78.07.27.02.53.03.78.03s.51 0 .78-.03c.27-.02.53-.04.78-.07-.13 1.23-.2 2.37-.23 3.43S85 16.7 85 17.79c0 1.15.08 2.08.25 2.79.17.71.41 1.26.73 1.64.32.39.72.64 1.19.77s1.01.19 1.63.19c.76 0 1.35-.19 1.79-.57.43-.38.76-.89.98-1.52.22-.63.36-1.36.41-2.17.05-.82.08-1.67.08-2.56s-.01-1.74-.04-2.61-.06-1.74-.11-2.61c.18.03.35.05.51.07.17.02.32.03.46.03.17 0 .32 0 .48-.03.15-.02.31-.04.47-.07-.03.28-.05.65-.08 1.12s-.05 1.01-.08 1.62-.05 1.29-.07 2.03c-.02.74-.03 1.52-.03 2.35 0 2.2-.47 3.78-1.42 4.74s-2.34 1.43-4.18 1.43l.04.03Zm11.8-6.24V19c0 1.05.01 1.99.04 2.8.03.82.06 1.62.11 2.4-.22-.03-.45-.04-.7-.04h-1.71c-.25 0-.49.01-.7.04.05-.79.09-1.59.11-2.4.03-.82.04-1.75.04-2.8v-2.58c0-1.05-.01-1.99-.04-2.8-.03-.82-.06-1.64-.11-2.46.21.03.45.05.7.07.25.02.54.03.85.03.34 0 .73-.02 1.17-.05.44-.03.98-.05 1.62-.05.48 0 .89.01 1.24.04s.64.06.88.11.46.12.65.2c.18.08.36.18.52.29.38.28.68.62.9 1.04s.33.9.33 1.47c0 .92-.25 1.68-.76 2.26-.51.58-1.24.99-2.19 1.23.61 1.08 1.26 2.15 1.96 3.22s1.39 2.13 2.09 3.18c-.29-.03-.58-.04-.85-.04h-1.72c-.29 0-.57.01-.86.04l-3.4-5.98h-.17Zm3-3.49c0-.56-.06-1-.17-1.33s-.29-.58-.52-.75-.54-.28-.91-.33-.82-.08-1.34-.08c-.04 1.72-.06 3.45-.06 5.17.08.01.15.02.22.03h.2c.84 0 1.48-.22 1.92-.67s.67-1.13.67-2.04h-.01Zm16.51 9.48c-.3-.03-.59-.04-.86-.04h-1.62c-.27 0-.54.01-.81.04-.2-.62-.41-1.25-.63-1.9-.22-.65-.44-1.29-.68-1.94l-1.22-.03h-2.21c-.33 0-.66.02-.99.03-.25.65-.49 1.29-.7 1.94-.22.65-.41 1.28-.59 1.9-.15-.03-.3-.04-.45-.04h-.9c-.15 0-.32.01-.49.04.15-.33.35-.79.61-1.37.25-.58.53-1.24.84-1.98.3-.73.63-1.52.98-2.36s.7-1.69 1.04-2.56c.35-.86.69-1.71 1.03-2.55.33-.84.64-1.62.92-2.34.13.03.25.05.36.07s.23.03.36.03.25 0 .36-.03c.11-.02.23-.04.36-.07.41 1.08.84 2.23 1.3 3.46.46 1.23.93 2.44 1.4 3.62.47 1.18.92 2.31 1.37 3.37.44 1.06.85 1.96 1.22 2.7Zm-6.73-9.48c-.33.76-.64 1.51-.93 2.25s-.58 1.5-.86 2.27h3.48c-.28-.77-.55-1.53-.83-2.27-.27-.74-.56-1.49-.87-2.25h.01Z" class="cls-3"/>
    </g>
  </g>
</svg>
