<svg xmlns="http://www.w3.org/2000/svg" fill="none" viewBox="0 0 36 61">
  <path fill="#017626" d="M.204 23.719c1.18.631 2.48.85 3.72 1.313 1.02.45 2.052.938 2.926 1.636a41.11 41.11 0 0 1 2.213 2.45c.478.304.917.673 1.352 1.038a4.025 4.025 0 0 1 1.446 1.654l.323.547a17.067 17.067 0 0 0-.08-.259c-.6-1.632-1.669-3.066-2.396-4.645-.256-.432-.596-.983-.93-1.58-1.027-1.22-2.055-2.446-2.703-3.915-.62-1.867-.858-3.84-1.22-5.77-.134-.663-.274-1.324-.348-1.994-.046-.123-.087-.287.029-.364.171-.049.288.17.369.294.634.973 1.277 1.941 1.877 2.937.944 1.479 2 2.91 2.692 4.532.286.69.622 1.36.813 2.086.206.861.215 1.754.373 2.625.065.526-.03 1.091.195 1.579l.049.08c.795 1.657 1.57 3.348 2.159 5.09.45 1.44.594 2.95.726 4.446.163 1.432.268 3.011.033 4.46-.096.678-.177 1.358-.288 2.034.607-1.424 1.102-2.895 1.385-4.42.555-2.088.872-4.225 1.27-6.346.132-1.83.215-3.586.204-5.433-.06-1.098-.035-2.199-.072-3.297-.027-.33-.066-.66-.112-.987a.549.549 0 0 0-.023-.038c-.28-.586-.68-1.095-1.06-1.616-.869-1.225-2.083-2.109-3.143-3.15-.748-.655-1.6-1.181-2.32-1.87a17.982 17.982 0 0 1-1.473-1.714c-.12-.186-2.077-3.454-1.337-3.128.756.677 1.46 1.42 2.251 2.06 1.077.775 2.212 1.476 3.24 2.32.8.662 1.433 1.493 2.016 2.346.502.682 1.017 1.415 1.388 2.2a70.872 70.872 0 0 1-.13-.693c-.335-2.206-1.218-4.254-1.898-6.364a33.402 33.402 0 0 1-.315-.728 23.41 23.41 0 0 0-.828-1.15c-.384-.533-.885-.97-1.24-1.526-.412-.638-.74-1.326-1.09-2a7.988 7.988 0 0 1-.8-2.28c-.344-1.146-.633-2.309-.763-3.5C8.547 1.944 8.14 1.29 8.02.552c-.226-1.019.437-.405.662.06.96 1.455 2.241 2.657 3.256 4.074.47.599.798 1.285 1.137 1.963.399.752.736 1.544.89 2.386.104.744.201 1.489.334 2.229.083.557.074 1.124.186 1.678.125.62.349 1.264.327 1.902.247.733.456 1.478.61 2.24.254.958.552 1.906.782 2.87.002-.111.004-.222.008-.333-.134-.172.015-.47.027-.672a39.289 39.289 0 0 0 .1-.642c.042-.298.079-.596.109-.895.243-1.574-.184-3.207.028-4.79.116-1.036.416-2.038.955-2.935.573-1.157 1.116-2.338 1.42-3.596.098-.334.353-.469.38-.034.037.44.044.882.074 1.323.049.669.072 1.34.11 2.01.07.532.136 1.065.118 1.603-.053 1.205-.37 2.401-.795 3.525-.471 1.014-1.203 1.943-1.686 2.947-.088.236-.199.465-.285.704-.016-.015-.02-.065-.022-.098-.05.285-.1.57-.153.854a20 20 0 0 0-.092 1.296c-.028.215.043 1.027.043 1.633.233 1.718.355 3.457.47 5.184-.036 1.641.02 3.287-.157 4.922-.243 1.647-.301 3.321-.65 4.952-.278 1.219-.462 2.46-.818 3.66-.42 1.333-.844 2.667-1.267 4-.093.245-.192.487-.298.726.651-.804 1.3-1.609 2.01-2.364.8-.834 1.612-1.662 2.33-2.567.6-.787 1.059-1.666 1.556-2.518.9-1.3 1.328-2.816 1.912-4.266l.11-.458c.203-.934.166-1.89.284-2.833.153-.87.322-1.74.475-2.61.11-.678.346-1.319.657-1.929.255-.594.507-1.19.823-1.755.3-.615.681-1.18 1.094-1.725.296-.426.53-.888.793-1.332.23-.384.479-.758.65-1.171.212-.247.31.21.274.375-.123.387-.238.76-.298 1.17-.13.668-.174 1.347-.234 2.024-.138 1.214-.123 2.444-.369 3.644-.173 1.039-.326 2.095-.755 3.065-.504 1.073-.937 2.197-1.715 3.109-.36.528-.715 1.06-1.16 1.521-.13.14-.253.291-.393.42-.438 1.346-1.05 2.64-1.71 3.885-.618.998-1.426 1.86-2.14 2.792.254-.156.515-.298.745-.49.776-.63 1.668-1.076 2.545-1.542a.575.575 0 0 1 .148-.122c.706-.422 1.394-.874 2.098-1.299.982-.774 2.078-1.369 3.141-2.019.932-.663 2.014-1.029 3.082-1.406 1.064-.365 2.18-.483 3.292-.59.616-.115 1.239-.234 1.87-.19.176.023.42-.046.552.1.05.29-.338.417-.562.49-.588.222-1.158.489-1.711.783-1.47.85-2.829 1.895-4.396 2.563-1.06.551-2.185.967-3.36 1.184-.75.195-1.499.394-2.27.48-.648.116-1.274.33-1.907.509-.598.344-1.186.707-1.764 1.089-.374.24-.778.432-1.145.681-.421.392-.881.734-1.323 1.1l-.072.062a21.989 21.989 0 0 1-2.605 2.698c-.826 1.007-1.684 2.087-2.52 3.123l-.078.14c-.625 1.325-1.438 2.532-2.362 3.668-.791.982-1.439 2.072-2.258 3.032-.32.396-.726.713-1.142 1.006-1.608 1.262-3.125 2.643-4.716 3.927-.044.037-.085.047-.122.04-.317-.2-.35-.782-.121-1.071 1.378-1.157 2.764-2.307 4.113-3.498.86-.854 1.65-1.775 2.545-2.595.838-.846 1.466-1.861 2.052-2.892.598-1.235 1.527-2.26 2.18-3.46.147-.277.293-.556.436-.836.013-.677.357-1.67.387-2.042.196-.938.426-1.875.48-2.835.015-.31.035-.62.055-.932-.16-.407-.322-.82-.533-1.204-.48-.644-1.073-1.225-1.762-1.644-1.683-1.001-3.278-2.246-4.408-3.863-.17-.228-1.87-3.023-.875-2.632a21.96 21.96 0 0 0 1.949 1.407c.475.313.913.688 1.419.95.694.302 1.393.621 1.96 1.136.79.802 1.559 1.682 1.93 2.764.145.356.287.72.398 1.091 0-.361-.014-.722-.044-1.083a31.4 31.4 0 0 0-.684-3.528c-.367-.652-.746-1.297-1.123-1.942-.619-1.002-1.356-1.642-2.417-2.149a7.508 7.508 0 0 1-.528-.298 19.82 19.82 0 0 0-.595-.203c-1.636-.587-3.387-.95-4.82-1.983-.854-.595-1.468-1.455-2.148-2.228-.238-.294-.463-.609-.699-.92-.127-.136-.588-.656-.117-.586l-.003.002Z" opacity=".3"/>
</svg>
