<svg xmlns="http://www.w3.org/2000/svg" fill="none" viewBox="0 0 155 230">
  <path fill="#44A301" d="M163.3 139.6c-5.2 42-26.6 88.3-68.6 83.1-42-5.2-88.7-60-83.5-102 5.2-42 24.6-65.7 66.6-60.5 42 5.2 90.7 37.4 85.5 79.4Z" opacity=".2"/>
  <g fill="#44A301" opacity=".2">
    <path d="M94.6 121c0 .3-.2 0-.3 0 0-.2.3-.3.3 0Z"/>
    <path d="M72.1 115c.2-1.7.3-3.7 1.6-5.1.8-.8 1.7-2 3-1.8 1.8.7 3 2.5 4.2 3.8 1 1.2 2.2 2.4 3.1 3.7 1.8 2.5 3.1 5.3 4.4 8 1.5 2.9 2.9 5.8 3.6 9 .7 2.8 1 5.7 1.5 8.5.5 2.5.8 5 .7 7.6.2 2.8.7 6.6.4 9l.6 2.1c1.3 4.6 1.4 9.5.9 14.2 3-7.5 4.7-15.5 7-23.2 0-.5.2-1 .3-1.4v-.5c-.1-5.2-1-10.3-1.6-15.5-.5-3.2-1.3-6.5-2.2-9.7l-.9-1.8c-.9-1.9-1.7-3.7-2.8-5.5l-3.3-5.5c-1.9-2.6-3.8-5.2-5.3-8-2.5-4.4-5.6-8.5-7.4-13.3a31 31 0 0 1-3.3-14c0-3.3.4-8 4-9.1 2.7 0 5.9 5.5 7.7 7.4 2.7 2.9 4.5 6.4 6.5 9.7 1.4 2.8 2.1 5.8 3.2 8.6 1.5 3.8 2.1 7.8 2.2 11.8.2 3 .5 6.1.2 9.2 0 2.5.2 5 0 7.4a52 52 0 0 1 1 4c.6 2.6 1 5.3 1.5 7.9.7 3 1 5.9 1.3 8.9l.2 2 .4-3.3c.9-5.4 1.8-10.7 2.3-16.1 1.3-7 1-14.2 1.7-21.3.3-4.5.3-9 .7-13.6l-.3-1c-1-4-3-7.5-4.6-11.2a38 38 0 0 0-2.5-5c-1.2-1.3-2.4-2.7-3.7-3.8-3-2.4-6.2-4.8-9-7.5-5-4-10.2-8.2-13.9-13.7-2.4-4-4.9-11 .2-13.9 4.3-1.2 9.8 4.7 12.3 7.6 2.7 3.7 5.4 7.4 7.5 11.4 1.4 2.7 2.5 5.5 3.8 8.2 1.1 2 2.1 4.4 2.8 6.6.9 2.2 1.9 4.4 2.4 6.7 2.1 3.9 3.8 8 5.1 12.3 0-4.3-.2-8.7-.4-13-.1-6 0-11.9-1-17.7 0-3.2-.6-6.3-1.2-9.4-1-2-2.4-3.8-3.7-5.7-1.8-2.4-3.3-5-5-7.4a63.1 63.1 0 0 1-8.6-15C88.3 14 86.5 7.6 88 3.7 89 2 90.5.3 92.6.5c2.3.2 4 2 5.8 3.4a18 18 0 0 1 5 6.7c1 2.5 2.3 5 3 7.6 1 3 1.4 6.2 1.7 9.3.5 2.8.8 5.7.8 8.6.1 3.3.4 6.5.4 9.8l1.2 8.3c.4 3.6 0 7.2.4 10.7.4 3.6.6 7 .6 10.6l1.4-3.2c.9-2.5 1.5-5.2 2.3-7.7 1.5-3.7 2.6-7.5 3-11.4l1-4.7c-.2-9.5-1.5-19-1.3-28.6.2-4.8 1.5-9.9 5.2-13.2 5.4-6 8.1 4 8 8.3 0 4.2-.4 8.4-1 12.6-.8 3.9-2.3 7.6-3.6 11.3-1 3-3 5.7-4.2 8.7-.6 1.3-1.3 2.6-1.8 4 0 .4-.1 1-.4 1.3-.2 1.3-.5 2.5-.9 3.7-1 3.6-1.7 7.4-3 11-1.3 4-3 8-4.7 12l-.1 3.3c-.1 4.7.3 9.4.1 14.2l-.6 8.7 1-2.8c1.4-3.7 3.6-7 5.3-10.5.7-1.5 1.5-3 2.4-4.4l.9-2 1.4-3.7c1.2-3.5 2.2-7.2 3.6-10.6.8-2 1.9-4 3-6s2.1-4.2 3.3-6.2c1.9-2.8 3.4-6.3 6.4-8.1 3-1.6 7.2-4 8 1a19 19 0 0 1-2.5 10.6c-1.4 2.7-2.6 5.6-4.3 8-1.7 2.5-4 4.2-6 6.4a39 39 0 0 1-6 5.8l-6.8 6.8c0 .2-.2.4-.3.5l-.4.6c-1.2 1.8-2.5 3.7-3.5 5.7-1.7 3.3-3.1 6.8-4.7 10.2l-1.2 4.1-.7 8.3a172 172 0 0 1-4.5 30.6l-.7 4.3a93.4 93.4 0 0 1-.6 3 93.8 93.8 0 0 1 10.2-12.6v-.1l.2-.3c2-3.4 4.4-6.6 6.2-10 1.6-3.3 3.3-6.5 5.2-9.6 2.8-5.6 5.3-11.5 8.9-16.7a15 15 0 0 1 8.5-5.8c2-.2 4.1 1 4.6 3 .8 4.3-1.2 8.6-2.7 12.5-1.2 2.6-3 4.8-4.9 7-1.7 2.3-3.4 4.7-5.4 6.7-2.4 2.3-5 4.2-7.6 6.3-2 1.5-4.2 2.6-6 4.2-1.4 1.2-3 2.1-4.4 3.2-1 .9-2.1 1.4-2.6 2.6l-.7.6h-.2l-.6 1a132.7 132.7 0 0 0-9.9 12.6l-.2.4c-1 3.7-2.2 7.4-3.6 11a112 112 0 0 1-8.3 21c-1.4 1.6-2.7-2.4-2-3.8 2.4-4.1 3.9-8.7 5.8-13 .2-1.2.5-2.3.5-3.5a52.7 52.7 0 0 0-1-13.3c-.6-.7-.7-2-1.2-2.8-1.4-3-2.8-5.9-4.5-8.6-5.5-7.3-11.6-14.5-14.3-23.5a21.4 21.4 0 0 1-1.9-10.8Z"/>
  </g>
</svg>
