<svg xmlns="http://www.w3.org/2000/svg" fill="none" viewBox="0 0 116 169">
  <path fill="#80B622" d="M67 152.8c25.6-20 34.6-57.7 22.9-78-11.7-20.2-45-7.1-65.3 4.6-46.8 33.3 5.1 19.4 16.8 39.7 11.7 20.2-22.8 71.4 25.6 33.7Z" opacity=".2"/>
  <path fill="#017626" d="M78 70.7c.5-2.5.8-5.1 1.2-7.7l1.7-3.1c1.8-3.3 4.5-5.9 7.2-8.5.9-1 2-2 3-2.8h1.8a20.6 20.6 0 0 0 17.6-13.7c.5-2.7 1-5.4.8-8-.5-.7-1.3.2-1.7.4-1.9 1-3.7 2-5.6 2.8-1.6.6-3.2 1-4.7 1.8a17 17 0 0 0-6.5 6.8c-.8 1.7-1.3 3.6-2 5.4l-.6 3.1c-2.7 2.1-5 4.6-7 7.4L80 59l.5-2.1c1.5-6.5 1.2-13.1 1.5-19.7a28.9 28.9 0 0 1 4.6-7.8h.2a15 15 0 0 0 9-12c.2-1.4.2-3 .3-4.4.2-1.8.2-3.6-.8-5.1-.7-.8-2 1-2.6 1.4l-3 3c-3.5 3.6-4.1 6-4.3 11 0 1.8.5 3.5.5 5.1l-.1.3c-1.3 2-2.9 3.7-3.8 5.9-.2-2-.5-4-1-6a28 28 0 0 0-.7-4l.2-1.3a19 19 0 0 0-4.5-17c-1-1.3-2.6-2-3.8-3.1-.6-.6-4.4-4-5-3.2-.2.4-.2 1-.2 1.4l.4 3.2.3 5c.5 3.6 2 7 4.1 10.1a54 54 0 0 0 7 6.5c.3 1.5.6 3 .7 4.5.3 3.6.8 7.2.7 10.8l-.5 5.3a31.7 31.7 0 0 0-5-12.2c.1 0 .2-.1.2-.3 0-1.3.2-2.8-.5-4-.6-1.3-1.8-2.5-3.2-2.3-1.9.4-3 2.6-2.3 4.3.6 1.8 2.5 3.8 4.5 3h.4a42.3 42.3 0 0 1 5.6 14L78 58.9c-.2 1.5-.6 3-1 4.5a30.1 30.1 0 0 0-4-11 39 39 0 0 0-4-6.5v-.8c-.4-1.7-.5-3.4-1.2-5a15 15 0 0 0-7.3-6.7c-2.4-1.3-5-2.2-7.7-2.7-.5 0-3.6-1.2-3.3 0 1.7 3.5 3 7.1 5.6 10a15.5 15.5 0 0 0 9 6.5c1.4.3 3 .3 4.4.6l2.8 4c1.7 2.6 2.8 5.6 3.7 8.6-1.4-1.4-4.5-2.7-5.4-3.2l-1.2-.6-2.3-3.4c-2.2-3-5.6-3.9-9-4.6-1.8-.3-3.5-.2-5.3-.2-1.2-.1-2.4-.3-3.6-.2-.4 0-1.5 0-1.5.6.2 1 1.2 1.6 1.8 2.3 2.9 3 5.6 6.5 9.4 8.3 1.2.5 2.5.5 3.8.6 1.5.1 3-.3 4.4-.9l1.7-.8 3 .8c1.7.8 3 1.8 4.4 3 0 .2.2.3.4.2l.6 2.2.2 1c-1 4.7-1.7 9.5-2.8 14.2L72 76.2a26 26 0 0 0-1.6-4.4l.1-.6c.3-1.2.7-2.5.4-3.8-.8-3-4.2-4-6-1.2-1.6 2.5 1.8 6.8 4.6 5.8l1 2.7c1 2.2 1.4 4.9 2.8 7-.5 4.4-1 9-1 13.6-.8-2.1-2-5.4-3.5-7.8v-2c.5-2.9-2.6-6.4-5-3.5-2.3 2.3-.1 6.4 3 6.5a3 3 0 0 0 1.3-.3c1.3 2.2 2.2 4.6 3.1 7 .4 1 .8 1.9 1 2.8l.2 4a83.7 83.7 0 0 0 1.7 18c-2-4-5-7.5-7.6-11.2a85.3 85.3 0 0 0-5-5.3l-1-2c-.7-1.8-1-3.8-1.3-5.8l-1-7.3.5-1c.7-1.5 1.4-3 1.8-4.6.6-1.8.8-3.7.4-5.6-.7-3-2.7-5.8-5.3-7.5L52 67c-.7-.5-1-.2-.9.6v1.9c-.2 5-2 7 .6 12 1.1 2.5 3.4 4.2 5.3 6l.6.8c.2 2.6.3 5.2.9 7.7a53.7 53.7 0 0 0 1.7 6l-.3-.2c-1.5-1.3-3.3-2.3-4.8-3.8-2.6-2.8-5.5-5.6-8-8.6a69.3 69.3 0 0 1-3.3-5.2l.3-5.8c.2-3-.5-6-1.9-8.8a11 11 0 0 0-4.2-3.8c-1.6-1-3.4-1.8-5.1-2.5-.4-.2-.6.2-.5.5v6.9c.2 3.3.5 6.9 2.4 9.7 1 1.6 2 3.1 3.8 3.9 1.3.6 2.6 1.3 4.1 1.4l.5.5.9 1.4c2.3 3 4.5 6 7 8.8 1.8 1.9 3.9 3.3 5.7 5l1.3 1.3-3.3-1.4c-1.9-.7-3.9-1-5.9-1.4-2-.6-4.2-1-6.3-1.3l-2.2-.8v-.2c-.6-1.3-.8-3-1.8-4s-2.6-1.5-4-1.1c-1.5.3-2.4 1.7-2.4 3.2-.6 3 3 5 5.7 4.3a3 3 0 0 0 1.4-.6l.5-.6a32 32 0 0 0 9.4 2.2c4 1 8 2 11.5 4 1.3 1.2 2.6 2.3 3.7 3.6 2 2.4 4.2 4.5 5.9 7.1a136.8 136.8 0 0 1 4.8 8.4c.9 4.2 2.1 8.3 3.5 12.3l3.1 8.3c.2.4.4.8.7 1 .3 0 .5 0 .7-.3.3-.7.1-1.5-.1-2.2l-1.8-4.8a135.5 135.5 0 0 1-5.7-21.1l.7-2.3.4-1 2.1-2c1.8-2 4.2-3 6.7-3.8 2-.6 3.9-1.3 5.9-1.7a19 19 0 0 1 2.5-.3l2 1c2.5 1.2 5.3 2.3 8 1.8 3-.6 5.6-2.6 7.9-4.7.5-.5 6.3-7 3.7-6.7-3.6.1-7.2-.4-10.8-.2-2 0-3.9.5-5.5 1.5a16 16 0 0 0-4.8 4.7l-1.1 1.1-3.6.7c-4.4.7-8.4 2.9-11.7 5.8.7-1.6 1.6-3.2 2.4-4.7.8-1.4 1.8-2.6 2.7-4 1.3-1.9 2.4-4 4.2-5.7a172 172 0 0 0 3.8-3.7 22 22 0 0 1 7-1.8c2.1 0 4.2 0 6.2-.2v.3c1 .8 2 2 3.4 2a3.2 3.2 0 0 0 2.8-2.7c.2-1.1 0-2.5-.8-3.4-1.7-1.3-4.6-.6-5.4 1.4a2 2 0 0 0-.1 1.3h-4.2c-2 .2-4.3.2-6.2 1l-1.2.6 2.8-3c1.9-1.7 4-3.2 5.6-5.2l4.5-1.3c4.3-1.5 6.8-5 7.7-9.3.3-2.2.2-4.4.2-6.7-.1-.7-.3-1.5-.7-2.2-.5-.6-1.4.4-1.8.7-2.8 2.4-5.7 4.7-8.4 7.2-1.7 1.6-3 3.5-3.5 5.9-.2 1.2-.1 2.4 0 3.6v1.3c-.2.4-.6.7-.9 1-2.1 2.7-4.8 4.8-7.2 7a35.6 35.6 0 0 0-4 4.3 60.2 60.2 0 0 0 1.5-5.7c1.8-2.2 3.6-3.6 4.3-6.7a10 10 0 0 0-.1-5.7c-.3-.6-.6-2-1.2-2.5.7-.1 1.4-.4 2-.7 4.3-2 6.6-6.4 8.5-10.5.9-2 1-4.3 1.5-6.5.2-1.8-1.3-.5-2 0-4 2.4-8.4 4-12 7-2.7 2.5-5.7 6.8-5.5 10.7l-.5.6-4.8 4.6a75 75 0 0 0-3 3.3l.5-2.3c.5-3.3 1.2-6.6 2-9.8Zm16-32.3a9 9 0 0 1 4.3-4.5c3.7-2.2 7.9-3.2 11.6-5.4-.2 2 .3 4-.5 6-.6 2.1-1.6 4.2-3 6a13 13 0 0 1-4.2 3.7 21.6 21.6 0 0 1-9.3 2.9c1.2-1 2.5-2 3.9-2.9 2.8-2.5 6-5 7.8-8.2.5-1 1.1-2 1-3l-1.2 1.5c-1.6 1.5-3 3.2-4.6 4.6-2.7 2.1-5 4.5-7.7 6.7l-1 .6c1.2-2.5 1.6-5.5 3-8ZM86.7 22c0-2.2.5-4.5 1.4-6.6 1.7-2.3 4.2-4 6.2-6 .5.9.2 2.1.4 3.2.1 1.7-.1 3.4-.3 5.1a11 11 0 0 1-6.2 9.5c2-3 3.6-6.6 3.7-10.3l-.1-1-.2.5c-.6 2.2-1.2 4.4-2.2 6.5-.8 1.5-1.8 2.9-2.8 4.3.4-1.6 0-3.7.1-5.2Zm-11-.2c-2.2-2-4.2-4-5.6-6.6A37 37 0 0 1 67.9 2c.9.2 1.5 1.1 2.3 1.6 1.2.8 2.5 1.5 3.6 2.6 2 1.8 4 3.8 5 6.4a13 13 0 0 1 1.2 4.8c0 1.6-.2 3.3-.5 5l-1.4-4c-1.1-2.4-1.8-5.3-4-6.9-.1 0-.3-.1-.4 0 .8 2.8 2 5.4 3 8.2l1.4 4.5-2.4-2.4Zm-5.4 11.7c-.7-1-.3-2.9.9-3.4.8-.2 2.1-.2 2.5.8.4.8 0 1.8 0 2.6l-1-1-.8-.4c.2.7.7 1.3 1 2l.5.8c-1-.4-2.2-.7-3.1-1.4Zm-4.8 12.7a13.8 13.8 0 0 1-8.5-4.4c-2.6-3-4-6.8-6-10.2 1.9.5 3.8.6 5.6 1.3 1.7.5 3.3 1 4.7 1.9 1.9 1.3 4 2.6 4.9 4.7.6 1.5 1 3.1 1.4 4.7l-.3-.2c-2.1-2.4-4.6-5-7.8-6 .4 1 1.5 2 2.3 2.9a81.9 81.9 0 0 0 5.8 5.9c-.6-.3-1.4-.4-2-.6Zm-1.1 12c-9.2 1.7-10.4-3.2-16-8.7 2.3.4 4.6.2 7 .4a12 12 0 0 1 8.8 2.6c1.1 1 1.8 2.4 2.6 3.6l-2.5-.6-3.7-1.4-4.6-1.7c.8 1.8 2.8 2.5 4.5 3.5 1.4.6 2.9 1 4.4 1.4l.9.4-1.4.4Zm4.7 13-1.2-.6c-.9-.3-2-1-2-2 0-.9.5-1.8 1.5-2 1-.3 3.3-.2 2.7 1.5l-.6 1.9a6.1 6.1 0 0 0-2-1.8c.2.7 1.2 1.7 1.5 2.5l.3.6h-.2ZM64.4 86a2 2 0 0 1 .5-2.5c.8-.4 3-1.2 3 .1.1.8-.2 1.6-.2 2.4a5 5 0 0 0-2.3-1.5l2.3 3-.4-.1c-1-.3-2.2-.4-3-1.4Zm-10.2-2.2c-.8-1-1.6-2-2-3.3-.7-2-.8-4-.6-6.1.3-1.9.7-3.7.6-5.6C55 70 57.3 72 59 74.5c.9 1.8 1.3 4 1 6-.5 1.4-1.2 2.7-1.9 4a23 23 0 0 0-2-8c-.4-.7-.9-1.6-1.6-2l.6 1.4c1.3 3.4 1.7 7 2.2 10.6l-.2.4c-.7-1.3-2-2.1-2.9-3.2Zm-14.5 0c-1.6-.7-3-1.8-4-3.3-.8-2-1.7-4-2-6.2-.3-2 .1-3.8.1-5.8 0-1.2 0-2.4-.2-3.6 2.4 1.7 5.6 2.4 7.4 4.9a6 6 0 0 1 1.3 3.2l.3 5-.2 3.8c-.5-1-1-2-1.3-3-.8-1.6-1.6-3.3-2.6-4.9 0 1 .3 2.1.6 3.1.8 2.7 2 5.3 3.2 7.8v.4c-.7-.7-1.6-1-2.6-1.4ZM36 99.2c-1.5 0-2.5-2-2.1-3.3.3-1 2-3 3.2-2.4.7 1 .7 2.1 1.2 3.2v.3l-1.3-.5c-.4-.2-1-.3-1.3-.6.3.6 1 1 1.5 1.5l1.7 1-2.9.8Zm62.8 1c1.6-1.2 4.4-1.8 6.4-1.8 3.1.4 6.2.7 9.3.4-1 1-1.6 2.2-2.4 3.3-1.7 1.9-3.4 4-5.6 5-3.2 1.5-5.9.4-8.9-.9l-.6-.2.8-.1c1.4-.2 3 0 4.4-.7a5 5 0 0 0 2.5-2.4c-.5.3-1.1.6-1.8.7-2.3.3-4.6.6-6.9.6l-2 .4c1.9-1 3.1-3 4.8-4.3Zm5.6-10.4c.6-.7 1-1.8 1.8-2 1.9 0 3.2 2.7 2 4.2-1 .1-1.8-.5-2.4-1.2h.2c.5-.3 1.5-.6 1.4-1.2-.1.3-.4.3-.7.3l-2.4.1.1-.2ZM100.2 79c.1-1.2.3-2.3.6-3.5 2.3-4.5 7.1-6.9 10.7-10.3l.1 4.7c0 1.8-.2 3.6-.5 5.3-.4 2.2-2 3.8-3.9 4.9-1.5.8-3.2 1.2-4.8 1.6l1.7-2c1-1.8 2-3.8 1.6-5.8l-1.5 3-3.1 3.7-1.2 1c.2-.8.2-1.7.3-2.6Zm-11.7 8 .3-1.8c.5-2.4 1.3-4.6 2-7-2 2-2.7 5.3-3.1 8l-.4 1.6v-.4l-.5-1.4c-1.8-5.3.5-6.7 3.8-10.3 2.5 6.8 1.4 7-2 11.3Zm-3.3-15.5a18.2 18.2 0 0 1 6.7-8.9c1.2-.7 2.5-1.2 3.8-1.8 2-1 4-2.2 5.9-3.5-.5 3.5-1 7.2-3.2 10-1.8 2.7-3 4.2-6 5.5-2 .9-4.2 1-6.3 1 1.3-1 2.6-2.1 4-3a21 21 0 0 0 6.7-6.2c.5-1 .8-2 1.3-2.8-.7.3-1 1-1.5 1.5-3 4.3-7.5 7-11.6 10l-.5.5.7-2.3Zm-1 3.8 1.7-.1 4.2-.6-1.5 1.4c-2 1.7-3.2 4.2-3.5 6.8-.3 1.6.5 3 1 4.5l.9 2.4-.5 3.2c0 .8-1 2.8-1.6 4.3-1.8 2-3.4 4.3-4.7 6.6-1.6 2.5-3 5-4 7.6 0 .4-.6 1.8-1.1 3.3a95 95 0 0 1-.3-5.4c-.5-6-.3-12.1-.5-18.2 0-2.1.4-4.2.8-6.3 2.7-3.4 5.6-6.7 9-9.4Z" opacity=".2"/>
</svg>
