<svg xmlns="http://www.w3.org/2000/svg" fill="none" viewBox="0 0 346 295">
  <g fill="#017626" opacity=".2">
    <path d="M271.9 123.7c-1.5-.2-2.8.6-4.2 1l-4.9.9c-8.2.8-16.4 1.5-24.6 2.8a74.4 74.4 0 0 0-23.9 9.4c-8 1.1-16.5 3.2-22.3 9.3l-2 2a43 43 0 0 1 5.6-6.2c7-6.8 15.4-11.8 22.8-18.2l1-.7c1 .2 2.3-1.5 3.2-2 3.2-2.2 6.3-4.7 9.5-6.9 5.2-3 10.6-5.8 14.7-10.3 3-3 4.7-6.8 6.1-10.7 3-7 5.1-14 4.7-21.7-.8-6.2-4.1.3-5.3 2.5-4.2 6-8.4 12-11.5 18.8-2.2 4.2-4.4 8.4-7.4 12.1l-7.7 8.5c-1.7 1.9-3.5 3.6-4.8 5.7a61 61 0 0 1-4.9 3.7l-6.2 4.3c1.1-2.4 1.3-5.3 2-7.8 1-3.3 1.5-6.7 2.4-10l.2-.5a74 74 0 0 1 2-3.2 95.4 95.4 0 0 0 14-18.4 87 87 0 0 0 7.6-24.2c.2-2.7 1.8-6.4.5-8.8-1.5-.9-3.7 4.9-4.6 6l-6.1 9c-3.3 5.6-7.7 10.7-10.4 16.7a36.7 36.7 0 0 0-4.2 15.2 25 25 0 0 0-.2 4.7 135 135 0 0 0-4.7 22.4 65 65 0 0 0-20.7 20.7l-.1-2.1c-.6-8.1-1.1-16.2-1.9-24.3a101.1 101.1 0 0 1 7.5-21.4c1.6-3.8 3-7.8 4.7-11.6 4.8-6.8 9.5-13.6 15.3-19.6 5.4-6.3 9.2-14.8 7.6-23.2-.6-4.5-1-9-2.5-13.3-.5-1.1-1.1-3.4-2.3-3.9-2.4.4-2.8 3.9-2.7 5.9 0 5.5-1.5 10.7-3 16-1.1 4-1.8 8.3-3.4 12.3-1.3 3.2-3.2 6-4.7 9l-2.8 7a94.2 94.2 0 0 0-4.7 11.4l-1 2.8c-2.5 5.4-4.8 10.9-6.7 16.5l-1.8 6a245 245 0 0 0-2.3-17.2c-1-8.8-2.7-17.5-4.1-26.2l-.1-6.6c.8-6.1 1.5-12.4 3.8-18.2a133.6 133.6 0 0 0 9.2-28c.4-4.4.4-8.7.7-13 0-1.1.5-10-2-7.8-2.5 3.8-5 7-7.8 10.8A55.9 55.9 0 0 0 170 45.6c0 6-.2 12.2 2.3 17.9 1.4 4.6 3.3 9.8 4.6 14.5.1 1.5-.2 3 .4 4.4.1.3.3.5.6.6l.5 3 .2 1.1c.3 2.6.9 5.1 1 7.7.7 7 1.8 13.6 2 20.6.6 7.5 2 14.8 1.3 22.3.2 5 .4 10.2.4 15.3-1.4-1.3-2.9-2.4-4.2-3.7-2.5-2.4-5-4.6-7.8-6.7a59.5 59.5 0 0 1-7-19.2v-3.6c0-7 .8-14.3 1.2-21.4a41 41 0 0 0-5.7-21.6c-2.9-5.2-5-11.5-9.9-15-2 .2-.4 3.2 0 4.3.6 1.7 1 3.5 1.3 5.3 1.1 6.6 1 13.4 2.1 20 .8 3.8.8 7.7 1.5 11.5.8 4.4 2.4 8.1 3.9 12.4a94 94 0 0 1 3 8.4l.2.3.3 1 .1.3.2.6.3 1a44.2 44.2 0 0 0 .7 1.7l1.6 5.8c.6 1.9 1.3 3.7 2.2 5.5-2.9-2-5.5-4.4-8.2-6.5-2.6-2-5.5-3.6-8-5.7a98.8 98.8 0 0 1-8-8.8l-2-3.4a88 88 0 0 1-3.2-6.9c-2.1-5.7-2.7-12-4.8-17.6-2-6.7-4.8-13-7.3-19.4a67.2 67.2 0 0 0-5.1-12.5c-.7-1.2-2.2-1.5-2 .2 0 1.2.4 2.3.6 3.5.8 4.8 1.3 9.7 1.7 14.6.5 6.7 2 13.8 3.5 20.5 2.1 7 7.2 12.4 12.3 17.5 1.4 2.6 3 5.2 5 7.6 2 2.8 4.8 5 7.5 7.2l-3.3-1-7.6-3.2c-8-4-14.3-10.7-22.3-14.6-5.7-2.1-11.8-3-17.7-4.5-2.1 0-7-2.2-8.3-.2 0 .6.6 1 1 1.2 3.4 2.4 6.5 5.4 9.5 8.4 5 5.4 11.4 9 18.1 11.8a53 53 0 0 0 27.3 4.5c4.3 1.8 8.5 3.7 12.7 5.8 1.5 1.2 3.2 2.3 4.8 3.4 3 2.3 5.9 4.6 9 6.7v.2l.7.5a14.6 14.6 0 0 1 1.1.8l.3.2.1.1h.1l2 1.4a26 26 0 0 1 6.6 5.8l-.1 5.6c.2 2.7-1.3 7.3 1 9.4h.3c.8.4 1.7 0 2.5-.4 1.8-1.2 1.7-3.8 1.9-5.8v-6.1l-.1-.2a19 19 0 0 0-.6-3.5l-.2-2.6c1.8-2 3.8-3.9 5.7-5.8 3-1.9 6.5-2.8 9.8-4.1 3-1 6.2-2.1 9.5-2.8 5 .3 10 .6 15 .3a48 48 0 0 0 30-6.6c1.5-1 18-9.6 13.9-11.2Zm-31.1-25.4c3-8.8 9.8-15.6 13.8-24 1 4.3-.3 8.6-1.2 12.8a35 35 0 0 1-5.9 13.3c-2.3 3.3-5.7 5.4-9 7.5a42.2 42.2 0 0 0 13-18c.4-1.8.8-3.7.4-5.5-1.2 2.2-1.9 4.6-3 6.8-2.3 5-6.3 9-9.8 13-2 2.2-4 4-6.3 5.9 3.2-3.6 6.1-7.4 8-11.8Zm-23.6 3.1c3-9.7 9.7-17.6 14-26.5.2-1 0-1.4-.3-1.5-.4-.2-1.1.2-1.6 1-2.3 3.7-4.9 7.8-7.1 11.7-2.5 4.6-4.7 9.4-6.8 14.2.5-3.7 1.6-7.4 3-10.9l7-12.4c3.4-5.2 7.7-9.8 10.5-15.4-.6 5.6-2 11-3.3 16.5-1.4 4.4-3.8 8.4-6 12.4-3 4.6-6.9 8.6-10.1 13l.7-2.1Zm-45.5-51.6c0-7 1.4-14 3.5-20.5 1.8-4.8 5-8.7 7.6-13 2.3-3.4 5.1-6.2 7.3-9.6-.3 7.5 0 15.4-2.8 22.6-1.4 3.2-2.5 6.6-3.7 10a114 114 0 0 0-6 17.3c-.4 1.2-.5 2.5-.6 3.8-.3-3.9-.4-7.8-.2-11.8a135 135 0 0 1 6.4-23.4c2.7-9.7.7-6.7-2.4-.2a94 94 0 0 0-6.2 33.2c0 3 .6 5.8 1 8.7-2-5.5-3.6-11.2-4-17Zm43.8-12.7c2.3 8 3.9 11 2.6 19.7-.4 4-2.7 7.3-5 10.4-2 2.8-4.2 5.4-6.5 8l5.5-9.2c2.6-5.8 5-12.1 5.2-18.5-.1-2-.3-4.1-1.7-5.6v4.8c-.9 7.7-4.1 15-7.5 21.8l-3.6 5.4 5-11.3c3-8.2 4.3-17 6-25.5ZM155.6 95a158 158 0 0 0-3.7-27.5 48.4 48.4 0 0 1 11 33.3c.1 2.4-.1 4.8-.4 7.2a213 213 0 0 0-.5-4c-.4-7-1.6-27.7-8.7-30.9 3.5 6.6 4.6 14 5.5 21.2 1.4 6.8 1.3 13.7 2 20.5-2.9-6.3-4.1-13-5.2-19.8Zm-22 7.6c-1-2.6-2.3-5.2-3-8-.9-3.3-1.8-6.9-4-9.6-.2 1.5 0 3 .3 4.6.8 5.8 3 11.4 5 17l-1.1-1.4a34.4 34.4 0 0 1-6.7-20.3c-.7-6.4-1.7-12.7-2.7-19 4.4 10.4 8.5 21.2 11.4 32.2l3 10.5-2.2-6Zm-.4 27.8c-4.6-1-9-2.3-13.5-3.8-9.3-4.1-16.7-11.6-24.4-18 5.3 1.4 11 1.5 16.1 3.3 5.6 2.3 10.2 6.3 15.1 9.7l5.3 3.2c-2.7-.8-5.5-1.4-8.3-2.3-5-2.1-10-4.7-14.4-7.7 1.3 4.7 6.2 7.5 10.2 9.8l5.9 2.2 4.1 1.5c3.8 1.3 7.9 1.5 11.7 2.6l-7.8-.5ZM246 138a116.3 116.3 0 0 1-18.3 1.4c1.9-.2 3.7-.5 5.5-.9 2.5-.3 5-.2 7.6-1 2.3-.6 4.7-1 6.9-2 1.3-.7 2.5-1.6 3.6-2.6a10 10 0 0 0-5.3 0c-1.7.5-3.6.4-5.4.6-3.7.6-7.4 1.3-11.3 1.4-2.4.1-4.7.6-7 1.1a76.7 76.7 0 0 1 18.2-6.2c9-.7 18.2-1.2 27-3.5A65.9 65.9 0 0 1 246 138Z"/>
    <path d="M139.4 9.7c.3.2.7.2 1 .3l.9.5.6.7.4.3.4.5.1.1-.7-1.4-.3-.4-.7-1.1-.4-1.7V7c-.1 0-.1 0 0 0l.6.9.7 1.3.3.6v.7l.1.5.7 1.4.2 1.3v1.9l.3-1.3.4-1.8V9.6l-.3-.5-1-.9-.6-.5-.4-.5s-.6-1-.4-.9l.6.6 1 .7.5.6.4.7v-.2c0-.7-.3-1.3-.5-1.9l-.1-.2-.3-.3-.3-.4-.3-.6-.3-.7-.2-1-.2-.6c0-.3.2 0 .2 0l1 1.2.3.6.2.7.1.6v.5l.2.5.1.7.3.8V6.5l.3-.9.4-1s.1-.1.1 0v1l.1.4c0 .4 0 .7-.2 1l-.5.9V8l-.1.2V9l.1 1.5V12l-.2 1.5-.3 1c0 .4-.2.8-.3 1.1l-.1.3.6-.7.6-.8.5-.7.5-1.2v-.1l.1-.8.2-.8c0-.2 0-.4.2-.5l.2-.6.3-.4.2-.4.2-.4.1.1V9l-.1.6c0 .3 0 .7-.2 1 0 .3 0 .6-.2.9-.1.3-.2.6-.5.9l-.3.4-.1.1-.5 1.1-.6.8h.2c.2-.3.5-.4.7-.5l.7-.4.9-.6c.2-.2.6-.3.9-.4a4 4 0 0 1 1-.2h.5l-.2.1-.5.2-1.2.8c-.3.1-.6.3-1 .3l-.6.2-.6.1-.5.3-.3.2-.4.3-.8.8-.7 1-.7 1-.6.9-.4.3-1.3 1v.1-.3l1.1-1 .7-.8c.3-.2.5-.5.6-.8l.7-1v-.2l.2-.6.1-.8v-.3l-.1-.3-.5-.5a4 4 0 0 1-1.3-1.1s-.5-.9-.2-.8l.5.4.4.3.6.3.5.8.2.3v-.3a9 9 0 0 0-.2-1l-.4-.5c-.1-.3-.4-.5-.7-.6l-.1-.1h-.2l-1.4-.7-.6-.6-.2-.3s-.2-.2 0-.1Z" opacity=".3"/>
  </g>
  <path fill="#017626" d="M255.5 227.8C244.9 313 201.5 407 116 396.5c-85.2-10.6-180-121.7-169.4-207C-42.7 104.2-3.3 56.1 82 66.7c85.2 10.5 184 75.8 173.5 161Z" opacity=".2"/>
  <path fill="#44A301" d="M336.8 341.3c-5.2 42-26.6 88-68.4 82.9-42-5.2-88.4-59.8-83.2-101.7 5.1-41.8 24.5-65.5 66.4-60.3 41.9 5.2 90.4 37.3 85.2 79.1Z" opacity=".2"/>
</svg>
