<svg xmlns="http://www.w3.org/2000/svg" fill="none" viewBox="0 0 132 164">
  <path fill="#017626" d="m75.4 1 .2-1c-.6.4-1 1-1.4 1.7v-.3L73 3.2l-3.5 5.2c-1.7 2.5-4 4.6-5.7 7a47.2 47.2 0 0 0-8.1 17.8 32 32 0 0 0-.2 10.1 235 235 0 0 0 3 18.6c1.2 7.3 3 14.5 4.3 21.7.3 2 .4 3.9.5 5.8v1.2A6 6 0 0 0 63 93c-.7 3.9-2 7.6-3 11.4-1.3 4.4-2.3 8.8-3.8 13.1-3 7.3-6.2 14.6-9.1 21.9l-3.3 7c.1-3.2-.1-6.4-.5-9.6.3-1 .2-2-.2-3l-.2-.2c.3-1.8.5-4 .8-5a86.2 86.2 0 0 0 1.8-32.8c-.5-6.4-3-12.2-5.3-18-1.9-5.9-4.4-11.5-6.8-17.1-.8-2.9-1.8-5.6-3.1-8.2 0-.5 0-.9.2-1.3l-.4.2.2-.5c-4.5 1.9-6.6 8-9.8 11.9-4.3 6.8-6 15.2-6.5 23.1a39.5 39.5 0 0 0 5 17.7c3.7 8.8 12 14.4 16.4 22.8l3.3 7c.3.6 1.2 3.1 2 4.5.2 2.7.2 5.5.1 8.2.2 2-.9 5.6-.5 8l-3.2 7c-1.2 2.3-11.9 22.8-6.3 22.2 1.2-1.1 1.3-3 2-4.4l4.9-12.7c1.5-3.7 3.5-7.2 5.4-10.7 2.6-2.7 5.4-5.1 8.2-7.5 1-.1 1.7-.6 2.5-1 1.3-.7 2.7-1 4.1-1.5 9-2.5 18.5-4.1 27-8.3 4-2 7.2-5.3 10.5-8.4 4.1-3.5 7.8-7.5 10.7-12.2 2.3-3.7 5.3-6.9 6.7-11 1-1.3 2-2.8 1.8-4.1-.4.7-1.1 1.1-1.9 1.5a79 79 0 0 0-8.4 2c-3.5.8-7.1 1-10.6 1.6-2.9.6-5.7 1.7-8.4 2.8-5 2-10.2 4-14.6 7.2a44 44 0 0 0-12.5 14.8c-1.5 3.2-2.5 6.6-3.8 9.9l-5.9 5.7-2.2 2.1a248 248 0 0 0 12-30.2c1.5-4.7 3.6-9.1 4.8-14 1.1-4.7 2.5-9.4 3.6-14.2 0-.2.2-.4.3-.5 2-3.4 4-6.8 6.2-10 4.8-6.4 9.4-13 11.6-20.7 1.9-8 1.8-16.3.7-24.3-1.5-7.5-3.5-15-6.6-22a39 39 0 0 1-1.7-6.5c-.3-1.9-1.5-4-1.5-5.9l-.2.1ZM34.6 74.2C37 80 39.5 86 41 92c1 3.2 2.1 6.3 2.6 9.5.7 7.8-.8 15.6-1.9 23.4-.9-6.5-1.9-13-3.5-19.4-1-4-2.5-8-3.5-12.2-1.2-5.9-3.2-11.6-4.3-17.5-.5-5.5-1-11-.5-16.5 0 .6.2 1 .3 1.6 1.4 4.4 2.7 8.9 4.4 13.3Zm.2 43.8c-2-4-4.8-7.4-7.8-10.6-3-3.2-6.1-6.5-7.7-10.7a36 36 0 0 1-.1-23.6 75.6 75.6 0 0 1 8.6-16c-.5 3.7-1 7.4-1 11 0 6 1.2 11.8 2.2 17.6 1.4 6.2 4.5 11.8 5.7 18l2.5 13c.6 3.4 1.4 6.8 2.2 10.2l-.1-.1-4.5-8.8Zm62.4 4.6a47.2 47.2 0 0 1-25.5 16.5c-4.4.9-9 1.4-13.2 2.6 5-4.4 9.7-9.2 15.3-13l18.2-9.9a99 99 0 0 0 14.4-8 63.2 63.2 0 0 1-9.2 12Zm-30.5.8c1.4-1.6 3-2.8 4.9-4 4.3-2.5 8.7-5.2 13.6-6.8a130.7 130.7 0 0 1 18.4-4.5l-4.6 2.3c-5.7 3.7-12.3 5.8-17.8 9.7-5.9 4.4-12.1 8.1-17.8 12.8l-2.3 2a30 30 0 0 1 5.6-11.5Zm-7.7-74c-1.3-5.9-.9-12 .1-18 1.5-5.8 5.8-10.4 8.8-15.5 1.4-2.3 3.3-4.3 4.6-6.6-.3 3.7-.3 7.5-.6 9.8-.2 8.6-1.6 17.1-1.6 25.8-.9 9.5-2.5 18.9-3.3 28.4a78 78 0 0 1-1.7 9.3c-.9-4.5-1.6-9-2.2-13.5-.6-6.7-2.4-13.2-4.1-19.7Zm22.5-17c1 6.4 2.2 12.9 2.3 19.4-.6 8-8 19-12.4 26L68 82.6l3.2-20.4c.7-5.6.8-11.3 1.3-17 1.4-8.4 1.7-17 2.3-25.5.2-3 0-6.2.1-9.3.7 3.3 2 6.7 2.8 10 1 4 2.8 7.9 3.8 12Z" opacity=".2"/>
  <path fill="#80B622" d="M115.2 125.8c-10.5 39.5-50 68.6-79.3 65C6.6 187 5.5 142 9 112.6c15.7-70.9 25.1-3.7 54.4 0 29.3 3.6 71.8-61.7 51.7 13.1Z" opacity=".2"/>
  <path fill="#44A301" d="M186.2 163.8c-10.5 39.5-50 68.6-79.3 65C77.6 225 76.5 180 80 150.6c15.7-70.9 25.1-3.7 54.4 0 29.3 3.6 71.8-61.7 51.7 13.1Z" opacity=".2"/>
</svg>
